<svg width="615" height="599" viewBox="0 0 615 599" fill="none" xmlns="http://www.w3.org/2000/svg">
<g id="Page-1">
<g id="map_france">
<g id="Group" filter="url(#filter0_d_521_27)">
<path id="Path" d="M346.217 0C343.902 1.2261 341.314 2.0435 338.727 2.5885C337.773 2.316 336.956 2.7247 336.275 2.1798C334.369 2.861 332.462 3.4059 330.555 3.6784C329.466 4.2234 328.376 4.7683 327.151 5.0408C325.789 5.722 324.155 5.177 322.793 5.5858C321.295 5.722 319.797 6.1307 318.299 6.4032C317.345 6.5394 316.528 6.8119 315.711 7.3569C314.213 7.2206 313.123 8.3105 311.625 8.4468C310.127 8.7192 308.765 9.5367 307.812 10.4904C306.042 11.444 305.361 13.8963 303.318 14.1688C302.637 14.4413 301.411 14.1688 301.139 15.1225C301.547 17.3023 302.773 19.4821 302.228 21.7982C302.228 23.7055 300.322 24.9317 300.594 26.839C301.003 29.1551 301.139 31.4711 301.139 33.7872C301.003 34.8771 301.684 35.4221 302.228 36.1032C303.182 37.3294 301.547 36.3757 301.139 37.1932C300.867 39.7817 301.003 42.3702 300.594 44.8225C300.049 45.5037 300.186 46.5936 300.867 47.1386H301.003C301.411 47.2748 301.82 47.5473 302.228 47.8198L303.59 48.2285L303.727 48.3647L304.135 49.0459H304.271L304.407 49.3184L304.544 49.8634H304.68L305.225 50.2721V50.4083L305.905 49.9996V49.8634H306.314L306.586 49.7271H306.723L307.676 49.5909H307.812L308.221 49.1822L308.357 49.0459L308.902 48.9097L309.174 48.6372L309.446 48.501L310.536 48.6372H311.353L311.625 48.7735L312.306 49.3184L312.442 49.4546L313.532 49.8634H313.668L313.804 50.1358L314.485 50.5446L314.622 50.6808L314.894 51.362L315.302 51.6345H315.439H315.575L315.847 51.7707L315.983 51.9069H316.528L317.481 50.817L317.618 50.6808H317.89H318.162L318.979 51.362L319.116 51.6345V51.9069V52.0432L318.979 52.4519L318.843 52.5881L317.89 53.2693L318.026 53.5418H318.162H318.299L318.707 53.6781L319.116 54.0868L320.205 54.4955H320.341L320.614 54.768H320.75V54.9042L321.022 55.0404L321.567 54.9042H321.839L322.248 55.1767L322.384 55.3129L322.793 55.7216H323.065H323.337H323.61L324.155 55.9941L324.291 56.1303L324.427 56.2666V56.6753L323.882 57.084L324.018 57.3565V57.629L324.427 58.0377L324.563 58.1739L324.699 58.4464V58.8551H324.972L325.653 58.9914L325.789 58.7189L326.197 58.5826L327.015 58.9914L327.151 59.1276L327.287 59.2638L327.423 59.4001L327.559 59.6726L328.376 58.8551L328.649 58.7189H328.785L328.921 58.5826L329.194 58.4464H329.33L329.738 58.3102L330.147 58.0377L330.828 58.5826H330.964H331.509L331.917 58.8551V58.9914L332.053 58.8551H332.19L332.734 58.7189L333.415 57.9015L333.824 57.7652L334.641 58.1739L334.777 58.3102L334.913 58.5826L335.05 58.8551L335.731 58.4464H336.003L335.867 58.1739L335.458 58.0377L335.322 57.7652L335.594 57.3565L336.275 57.2203L336.411 57.084L336.956 57.2203L337.092 57.3565L337.229 57.4927L338.182 59.1276V58.8551L338.318 58.7189L338.727 58.1739L339.135 58.0377L339.68 57.629L339.816 57.4927H339.952H340.361L340.769 57.7652H341.314H341.45L341.859 57.629H342.131L342.54 57.9015L342.676 58.4464L342.812 58.5826L342.948 58.8551L343.493 59.1276H343.629L343.902 59.2638L344.038 59.4001L344.174 59.5363L344.31 59.6726L344.447 59.945V60.2175V60.3537V60.49L344.174 60.8987H344.038L343.766 61.0349H343.629H343.493L343.221 61.1712H343.085L342.268 61.7161H341.995H341.859H341.45L340.906 61.9886V62.3973L340.633 62.6698H340.497H340.225L340.089 62.9423L339.816 63.2148H339.68V63.6235L339.544 63.896L339.271 64.1684L338.999 65.3946V65.5308H339.408L339.816 65.8033L339.952 65.9395L340.361 66.212H340.497L340.769 66.4845L340.906 67.0295L341.45 65.5308L341.587 65.2584L341.723 65.1221L341.859 64.8496L341.995 64.7134L342.131 64.4409L342.404 64.1684H342.812H342.948L343.085 64.0322H343.221H343.902L344.719 63.896H344.991L345.264 64.1684L345.945 65.5308L346.081 65.3946L345.945 64.7134V64.4409L346.217 64.0322L346.626 63.896L347.306 64.1684H347.443L347.715 64.0322H347.987L348.124 64.1684H348.26L348.532 64.7134L348.396 64.9859L348.26 65.1221L347.715 65.6671V65.8033L348.396 66.0758L348.532 66.212L349.213 66.0758H349.349H350.03H350.166L350.303 66.212L350.439 66.4845V66.6207L350.575 66.757H351.256L351.392 66.6207L351.801 66.4845L352.345 66.757L352.482 66.8932H352.754H353.026L353.435 67.0295L353.299 66.8932V66.3483L353.571 66.0758L353.707 65.9395H353.843L353.707 65.1221L354.116 64.7134H355.069H355.342L355.478 64.8496L356.295 65.5308L356.431 65.6671L356.84 65.8033L357.384 65.6671L357.793 65.8033L357.929 65.9395L358.065 66.212L357.929 66.757V66.8932L358.065 67.3019V67.5744L357.793 68.3918V68.5281L357.248 69.073V69.2093V69.3455L357.112 69.7542L356.431 70.2992L357.112 70.1629L357.248 69.8905L357.521 69.7542L358.065 69.618L358.474 69.073L358.61 68.9368H359.155L359.7 68.6643H359.836L359.972 68.3918L360.108 68.2556L360.653 67.8469H360.925H361.198L361.606 68.2556V69.073H361.742L362.015 69.3455L362.559 70.4354V70.8441L362.423 71.2528L362.968 70.9804H363.24H363.921L364.058 70.4354L364.602 70.1629L364.875 70.4354V70.2992L365.011 70.1629L365.147 70.0267H365.283H365.556H365.692L366.1 70.1629H366.237L366.373 70.2992L366.645 70.5717L367.19 70.1629H367.326H367.462L367.735 70.0267H367.871L368.143 69.7542L368.416 69.618L368.824 69.7542H368.96H369.096L370.186 70.0267L370.322 70.1629L370.867 70.2992L371.139 70.1629L371.275 70.0267H371.956L372.093 70.4354L372.773 70.8441L372.91 71.1166V71.3891L373.182 71.7978H374.135L374.544 72.2065H374.68H374.816L375.361 72.3428L375.497 72.6152L376.587 72.3428L377.812 71.5253H378.221H378.357L378.63 71.3891H378.902L379.038 71.5253L379.447 71.2528H379.719H379.855H379.991L380.264 71.3891L380.536 71.934V72.0703L380.672 72.2065L381.217 72.0703H381.353H381.49H381.626L382.579 72.2065H382.715L382.988 71.7978L383.124 71.6616L383.26 71.5253V71.2528L383.396 71.1166L383.668 70.9804H384.622H384.758L385.303 71.2528L385.439 71.1166H385.847L386.528 71.5253H386.801L387.073 71.6616L387.209 71.7978V71.934L389.525 72.0703L390.069 71.5253V71.3891V71.2528L390.342 70.9804L391.159 70.7079L391.704 70.0267L391.84 69.8905L392.248 69.7542H393.065H393.338H393.883L394.019 69.8905L394.427 70.1629L394.563 70.2992L395.244 70.4354L395.381 70.5717L396.062 71.2528L396.198 71.3891V71.5253L396.334 71.3891H396.47H396.606L397.56 70.8441H397.832H397.968V70.2992L398.104 70.0267L398.513 69.618L398.785 69.4817H398.921L400.556 68.8006H400.692L400.828 68.6643H401.373L401.645 68.9368L402.599 69.4817L402.735 69.618L403.824 69.7542H403.96L404.097 69.8905L404.233 70.0267L404.778 69.8905H405.05L405.867 70.4354L406.412 70.0267H406.548H406.82L407.229 70.1629L407.637 70.5717L408.455 70.7079H408.591L409.272 71.1166L409.408 71.3891V71.6616V71.7978H409.544L409.68 72.0703V72.3428L410.634 71.7978L410.77 71.6616L410.906 71.5253L411.859 71.2528H411.995H412.268H412.404L413.63 70.2992H414.038L414.311 70.4354L414.447 70.5717L414.583 70.8441L414.719 71.5253V71.7978L414.038 73.4327V73.5689H414.855L415.264 73.8414L415.4 74.2501H415.673L415.945 74.3863L416.217 74.5226L416.762 74.2501H417.034L418.396 74.5226L418.669 74.6588L418.941 74.9313L419.077 75.2038L419.486 75.0675H419.622H419.758L421.12 74.6588L422.073 74.2501C422.346 73.8414 422.073 73.2964 421.665 73.024C421.12 72.2065 421.937 71.2529 422.482 70.7079C423.571 70.9804 423.708 69.8905 424.525 69.4817C425.069 69.4817 425.478 69.2093 425.478 68.6643C425.478 68.2556 425.342 67.9831 425.069 67.8469C424.252 67.3019 423.98 66.212 424.252 65.2584C424.389 64.3047 422.754 64.1684 422.21 64.8496C420.848 65.1221 421.392 64.0322 421.392 63.351C422.346 63.0785 421.937 61.9886 422.346 61.3074C422.754 60.6262 421.665 59.4001 422.89 59.2638C423.435 58.5826 423.708 57.4927 424.797 57.2203C426.023 56.5391 424.525 55.0404 423.571 55.0404C423.299 53.9505 421.937 54.4955 422.754 55.4492C423.163 56.4028 421.256 56.5391 421.529 55.4492C420.575 54.9042 421.256 53.5418 420.167 53.1331C419.622 52.3157 418.805 52.5881 418.396 51.7707C417.443 51.362 417.171 50.4083 416.762 49.5909C415.673 50.1358 414.583 50.4083 413.494 50.4083C412.54 50.817 411.451 51.6345 410.225 51.2257C409.953 50.2721 408.863 50.5446 408.318 49.8634C407.501 49.4546 406.957 50.4083 406.139 49.8634C405.186 49.9996 404.233 49.5909 403.416 50.2721C402.599 50.6808 402.735 51.9069 402.462 52.7244C401.373 51.6345 401.781 53.9505 400.828 52.7244C400.147 51.4982 399.602 50.1358 399.33 48.7735C400.011 47.956 400.147 46.8661 399.739 45.9124C399.602 44.9588 400.011 44.0051 399.194 43.1877C398.922 42.3702 397.832 42.0978 397.696 41.1441C397.287 40.5991 396.47 39.6455 395.925 40.4629C394.836 39.7817 393.474 39.9179 392.521 40.5991C391.295 40.4629 392.112 39.1005 392.521 38.6918C392.248 38.2831 390.75 37.4656 390.342 38.1468C390.069 38.9643 389.252 39.5092 388.299 39.373C387.209 39.373 386.392 40.1904 385.439 40.1904C384.758 39.373 383.668 39.373 382.988 38.6918C382.17 38.5555 381.898 37.6019 381.353 37.1932C381.217 35.967 381.626 34.8771 381.49 33.6509C381.353 32.6973 380.264 32.1523 380.4 31.1986C380.128 30.245 379.447 29.4275 379.719 28.4739C380.809 28.0652 380.264 27.384 379.855 26.7028C380.264 25.7491 379.038 25.3404 378.221 25.4766C377.54 24.9317 377.404 24.2505 376.995 23.5693C376.723 22.6156 375.906 21.9344 375.77 20.8445C375.089 20.2995 373.999 20.1633 373.182 20.572C372.774 21.3895 371.684 21.6619 371.003 21.117C370.05 21.117 369.641 22.0707 368.688 21.9344C368.007 22.0707 367.326 23.0243 366.645 22.8881C366.1 22.4794 365.011 23.5693 365.692 24.1142C364.875 24.5229 365.419 25.6129 364.466 26.0216C363.921 27.384 363.513 26.5665 362.832 25.8853C361.879 26.1578 361.47 25.2041 360.789 24.9317C359.563 25.4766 357.793 24.7954 358.201 23.1606C357.384 22.8881 356.84 22.2069 356.84 21.3895C356.022 21.117 355.478 20.572 355.069 19.8908C355.614 18.5284 353.843 18.6647 353.163 18.5284C352.618 18.1197 351.801 19.4821 351.12 18.5284C350.711 17.8472 350.984 16.7573 349.894 16.6211C349.758 15.8037 350.575 14.9862 350.166 14.1688C349.758 13.3514 350.303 12.3977 349.485 11.8527C349.758 11.0353 350.575 10.6266 350.847 9.9454C351.801 9.8092 350.847 8.4468 350.439 8.1743C350.439 7.3569 349.758 6.6757 348.941 6.5394C347.987 5.4495 348.26 3.6784 347.851 2.316C346.898 1.2261 346.626 0.5449 346.217 0Z" fill="white"/>
<path id="Path_2" d="M241.898 111.988C242.17 115.667 243.123 118.8 242.578 121.798C247.345 118.528 242.715 125.612 243.804 125.204C247.89 126.021 245.166 130.653 248.026 131.743C245.983 133.787 248.298 136.103 245.575 137.056C248.979 138.419 249.252 142.778 246.119 146.048C247.617 151.498 256.061 145.094 256.47 150.408C255.108 153.678 266.684 154.904 263.007 160.081C262.462 160.353 264.096 164.44 266.003 161.988C268.182 157.901 273.902 160.898 276.761 156.811C279.621 158.991 279.213 152.179 281.664 155.994C284.66 155.721 289.563 158.037 291.061 154.495C287.929 149.454 298.824 150.544 294.874 145.503C297.053 144.958 298.688 142.233 295.691 142.37C297.19 140.19 292.423 135.558 297.326 136.375C298.279 134.332 304.407 136.375 304.271 130.926C305.361 127.656 306.178 119.345 310.808 123.569C310.4 119.754 309.174 116.212 307.131 112.942C307.676 109.945 313.396 105.449 307.948 107.356C306.995 105.585 309.174 102.588 306.178 101.634C307.267 99.4547 306.314 96.0487 308.629 93.8687C304.544 97.0017 307.948 88.1467 310.263 88.9637C306.586 85.4217 308.357 78.4734 302.092 77.2473C299.777 73.9776 295.419 71.2528 294.057 68.9367C279.894 80.3808 257.831 79.5634 241.898 90.5987C218.473 100.544 242.715 116.621 247.89 110.081L244.757 111.171L241.898 111.988Z" fill="white"/>
<path id="Path_3" d="M154.465 165.53C157.461 169.073 156.78 174.658 160.866 176.566C163.998 178.201 166.041 174.113 167.948 172.751C170.672 169.481 174.757 174.522 178.298 173.432C181.839 175.884 183.473 172.479 187.15 174.522C190.01 175.476 191.508 179.835 193.143 177.656C193.143 176.021 198.045 174.522 197.501 177.928C201.859 176.157 204.855 172.206 209.621 174.113C210.847 176.429 213.298 171.797 214.796 173.296C214.66 170.98 217.52 168.391 219.563 171.661C222.968 172.479 218.473 177.111 222.695 177.928C228.279 174.658 222.968 185.694 228.006 181.47C230.458 184.468 231.547 178.064 234.543 178.609C234.952 175.748 244.077 173.705 245.575 179.154C245.438 183.105 245.847 188.555 251.022 187.465C251.022 190.735 256.061 193.187 258.376 190.326C260.828 192.097 263.415 198.773 265.867 193.596C264.913 189.645 262.326 189.1 263.824 185.966C266.956 183.923 271.723 183.514 272.54 178.882C269.135 176.157 274.174 173.841 270.633 171.797C269.816 169.481 264.505 168.391 265.73 164.44C264.232 163.214 260.555 158.31 261.509 160.353C267.365 155.449 254.018 154.631 255.789 149.727C254.427 147.956 252.656 150.544 249.524 148.773C245.983 150.272 244.621 144.413 247.345 142.234C250.069 138.419 242.034 138.419 245.983 135.285C246.119 135.83 245.983 131.198 246.664 131.062C243.94 130.108 247.617 125.476 243.259 125.34C244.213 120.708 239.991 118.8 242.442 120.708C240.4 118.664 244.077 109.809 237.676 112.397C220.925 129.427 200.088 114.85 180.069 114.441C173.532 122.206 161.138 101.771 169.037 99.8627C170.672 86.5117 151.878 101.498 143.434 94.5497C131.041 87.1927 144.524 107.084 143.026 115.531C151.197 115.394 146.703 125.749 154.874 126.021C149.835 135.967 155.691 139.373 154.874 141.961C153.512 150.135 152.422 162.397 164.271 165.122C160.73 164.985 158.006 167.029 154.465 165.53Z" fill="white"/>
<path id="Path_4" d="M421.528 75.0675C418.532 76.1574 411.587 75.4762 413.629 70.9803C409.952 74.25 408.727 71.2528 405.458 71.1166C402.734 69.4817 399.194 69.2092 397.832 71.389C395.108 72.3427 392.929 68.3918 390.341 72.479C386.392 70.2991 383.532 73.5689 380.264 72.0702C377.54 72.2065 373.59 73.1601 371.275 70.7078C367.053 68.8005 363.921 71.934 360.516 71.7978C362.695 66.6207 357.793 71.5253 355.341 70.4354C357.793 68.528 356.839 64.4409 354.66 65.9395C355.614 70.1629 350.03 66.3482 347.442 65.8033C347.442 62.9422 340.769 61.7161 343.357 64.5771C341.45 65.5308 341.45 69.8904 339.271 66.3482C335.867 63.6234 342.404 60.7624 343.493 59.6725C341.314 56.1303 338.182 61.0349 336.956 58.5826C334.232 59.8088 330.555 58.5826 327.695 60.4899C325.925 60.2175 323.337 58.8551 323.882 56.539C321.294 55.0404 316.392 54.4954 318.571 51.4982C315.575 55.1766 312.17 46.3211 308.357 50.4083C303.863 53.4055 298.415 42.5064 299.505 55.1766C314.758 61.9886 289.563 59.1276 293.785 68.6643C296.917 67.9831 296.372 72.2065 299.368 73.4326C303.863 77.2473 309.038 79.9721 309.446 86.3757C310.4 88.2827 312.987 90.3267 309.446 90.3267C309.174 92.5057 305.497 95.2307 309.582 93.5957C310.263 96.0487 306.995 97.1377 308.084 99.8627C307.54 101.498 310.263 105.449 309.174 107.084C313.123 104.359 310.808 110.626 308.629 111.58C308.221 114.032 311.08 117.029 311.217 120.844C314.485 126.43 308.084 121.661 307.54 124.659C310.263 125.885 307.54 129.699 311.898 128.201C316.392 130.653 321.022 128.065 325.516 126.838C327.423 129.699 331.917 127.656 332.326 130.517C334.913 129.699 336.275 126.157 338.182 130.244C342.267 129.291 344.855 134.877 346.625 132.833C347.987 138.01 351.937 130.653 353.843 136.511C356.431 136.103 356.567 136.784 358.61 134.468C362.014 136.511 365.828 135.149 368.551 134.74C370.594 134.332 373.046 132.016 375.906 134.604C374.544 136.375 383.26 144.958 377.267 140.462C379.855 141.552 379.583 145.912 382.443 144.549C384.758 148.364 385.439 147.411 386.801 149.182C389.252 151.906 390.341 151.361 391.839 147.274C395.789 146.184 395.108 141.688 399.057 140.054C397.832 138.283 392.248 139.236 396.197 135.966C397.696 135.422 393.474 129.155 399.466 130.517C402.326 131.607 403.279 129.427 400.147 128.473C397.015 126.294 397.968 123.296 398.376 123.024C395.38 118.8 402.598 118.119 405.322 116.621C408.454 118.664 406.956 114.168 410.633 113.623C412.949 114.168 416.353 119.073 416.489 113.623C416.217 110.49 415.672 107.084 417.579 104.904C417.307 99.7267 414.583 103.133 416.217 98.0917C420.439 99.5907 419.349 95.3667 422.209 94.0047C424.797 92.2337 426.159 90.0537 424.252 88.1467C424.116 85.5577 428.065 81.3345 424.524 79.2909C425.478 75.8849 425.069 76.2936 421.528 75.0675Z" fill="white"/>
<path id="Path_5" d="M296.509 145.503C299.505 145.503 299.641 149.046 300.458 150.408C302.365 152.315 299.777 157.356 302.637 158.719C299.096 162.125 303.454 164.713 305.497 167.438C307.54 167.029 306.314 170.844 309.583 170.708C309.719 174.795 312.715 180.653 317.481 178.746C316.392 182.152 321.158 181.743 319.252 185.83C316.937 190.735 323.882 189.509 326.061 188.827C329.602 188.555 330.828 184.468 332.871 188.555C335.322 186.648 342.676 189.509 339.952 188.419C338.59 193.323 346.898 191.416 344.174 196.457C343.357 197.274 338.454 201.77 344.855 200.408C347.987 197.547 354.116 203.677 356.159 197.955C359.155 195.776 356.431 201.77 360.108 199.59C362.287 197.41 365.828 197.547 367.871 199.726C368.96 200.816 369.505 202.315 369.369 203.95C374.272 206.538 373.182 212.942 367.735 214.713C366.645 217.71 368.415 218.664 368.007 221.661C366.917 225.339 358.201 222.07 359.972 228.064C363.104 229.154 364.875 232.56 364.058 235.693C368.552 239.644 354.797 236.783 361.878 242.505C367.054 246.729 357.384 252.723 363.104 255.721C367.19 258.99 367.326 264.849 368.416 269.753C367.054 272.75 372.365 273.84 369.914 277.519C370.458 280.652 369.369 284.195 369.641 287.6C367.054 290.461 361.606 288.282 359.7 293.731C353.707 294.821 354.661 293.186 353.163 293.595C352.482 295.639 348.668 297.137 349.213 298.227C344.583 297.818 350.711 308.309 347.851 303.677C350.166 308.309 343.221 307.491 340.497 307.628C335.186 307.355 335.05 313.35 332.19 314.303C327.423 314.303 323.61 315.938 319.252 313.486C315.847 313.077 312.987 315.121 310.263 312.396C307.131 312.396 309.31 319.48 305.225 315.121C302.773 319.617 303.182 312.123 300.049 315.802C298.551 312.26 295.283 317.573 293.24 319.48C292.014 316.074 288.61 315.393 287.112 317.845C283.843 317.845 281.664 317.845 283.979 314.303C279.213 313.758 282.754 306.946 276.761 306.674C274.719 305.039 270.497 304.494 269.135 300.952C272.267 296.456 268.726 293.05 265.322 289.78C265.458 284.467 259.057 284.603 259.738 278.064C258.512 276.429 251.703 272.75 253.746 277.519C255.244 278.745 248.026 278.2 246.528 279.835C242.987 279.562 240.127 279.971 241.625 275.748C242.442 270.979 238.357 270.979 235.497 271.252C239.582 268.255 224.602 262.533 232.228 266.892C228.142 266.756 231.275 260.08 231.275 256.538C235.224 252.042 235.224 248.909 236.858 243.323C238.493 240.734 235.769 238.827 238.22 236.375C238.357 231.879 246.664 241.824 245.847 235.557C242.578 230.653 248.434 236.511 249.388 232.696C252.929 231.743 257.695 229.971 254.971 227.383C257.423 224.794 260.01 224.658 261.508 221.525C264.913 219.89 261.508 216.62 263.687 214.713C265.322 217.71 265.594 208.446 266.411 210.217C267.909 204.222 261.781 208.31 266.139 203.814C265.322 200.408 270.361 196.32 269.816 198.228C267.228 196.593 263.279 196.184 265.594 193.051C264.368 189.917 263.415 184.195 263.551 186.239C266.82 185.013 272.812 182.697 272.403 178.064C269.543 176.566 274.038 172.615 270.905 171.525C268.318 168.528 264.368 167.029 265.594 162.67C267.909 160.762 276.08 159.264 272.812 159.672C278.259 155.858 278.532 163.487 279.349 155.449C282.481 157.901 285.341 156.947 289.154 157.084C292.559 155.449 289.154 151.089 293.649 150.136C298.551 149.999 295.01 146.457 296.509 145.503Z" fill="white"/>
<path id="Path_6" d="M112.656 245.911C113.745 240.87 120.146 248.364 120.146 241.279C122.325 242.097 127.092 244.276 126.002 242.369C127.909 239.372 128.862 240.87 129.271 237.464C129.134 232.969 131.858 230.38 135.944 229.154C137.033 231.879 141.8 225.748 144.932 228.609C148.064 228.473 151.197 227.792 152.15 224.249C154.465 222.478 159.232 222.614 158.687 219.481C163.181 218.255 166.314 225.475 169.446 222.069C170.808 217.982 172.442 214.985 173.94 210.489C175.302 208.173 181.703 210.762 179.251 205.993C178.434 199.726 173.94 191.824 178.162 185.966C177.345 182.288 176.936 178.337 177.209 174.522C173.804 174.25 169.173 170.163 167.675 174.658C164.543 177.383 161.819 178.746 158.278 175.885C155.146 172.751 156.644 163.623 150.38 167.301C140.438 171.116 138.94 153.678 133.22 166.484C137.714 170.844 135.671 177.928 132.675 167.301C126.274 161.988 126.547 173.841 122.734 166.757C120.282 163.896 115.652 162.124 108.434 168.528C101.08 180.244 98.901 168.528 92.772 162.806C89.095 150.817 86.099 148.092 83.648 152.996C77.383 151.089 79.835 151.362 69.893 153.269C64.99 151.907 59.2702 154.223 60.2236 160.353C60.9045 166.893 47.4219 155.449 47.4219 163.214C46.4686 171.389 41.9745 154.223 37.8888 162.942C29.99 164.304 26.9938 164.032 21.5463 165.803C11.7409 165.53 16.3712 171.252 9.2895 170.435C3.5696 171.797 1.5268 185.83 8.0638 186.239C18.414 184.331 29.8538 176.974 21.0016 186.239C27.9472 184.468 24.951 185.694 29.7176 187.737C33.9394 189.781 16.0989 181.743 15.6903 186.784C9.8342 185.557 15.0094 202.042 18.2778 192.778C31.2156 194.277 28.6281 205.448 15.6903 203.269C-0.924598 205.721 15.0094 206.947 20.8654 211.443C19.5035 225.203 32.0328 213.214 33.1223 218.255C33.9394 211.988 45.1068 215.121 41.5659 218.119C43.8811 214.576 50.0095 226.565 57.2274 223.568C63.9006 232.151 75.885 223.841 71.527 227.383C70.029 230.244 79.835 235.012 78.881 226.565C84.193 227.247 76.43 236.375 81.196 244.14C80.788 239.236 92.909 240.598 88.823 237.464C89.368 231.47 88.959 238.554 97.811 234.331C98.765 234.74 106.527 234.195 98.084 239.781C90.866 236.238 91.955 244.685 101.352 242.642C107.889 238.827 105.029 242.097 117.15 242.778C114.154 242.505 107.753 243.186 112.656 245.911Z" fill="white"/>
<path id="Path_7" d="M194.096 388.417C197.5 391.278 201.995 384.875 201.314 390.597C205.536 390.188 210.438 392.232 208.395 397.136C209.213 401.223 214.388 398.499 216.158 403.403C219.563 406.809 222.287 400.678 224.738 403.948C226.508 401.36 226.236 397.409 230.322 395.501C232.909 396.455 234.952 396.591 235.633 393.049C238.221 391.959 241.217 390.188 238.765 386.51C238.765 383.104 241.625 381.196 242.306 379.834C245.302 378.744 247.754 376.837 249.66 374.384C252.248 372.613 249.115 366.21 253.882 367.709C254.699 363.077 260.147 360.488 260.964 356.265C264.913 358.717 265.594 351.088 264.913 348.227C269.135 349.861 273.221 344.957 268.863 341.96C266.547 343.458 264.232 338.962 266.003 336.646C265.458 334.466 267.092 331.878 264.368 329.562C266.275 326.701 269.544 322.75 273.902 323.976C273.902 321.115 276.081 318.799 278.941 318.799C279.213 318.799 279.621 318.799 279.894 318.799C281.8 316.892 285.069 314.848 280.711 313.349C280.711 309.943 279.213 306.674 274.583 307.219C272.812 305.039 266.82 302.859 269.271 297.954C271.586 294.14 263.824 291.824 264.232 287.6C262.053 285.148 258.921 282.423 259.193 277.927C257.151 278.336 254.699 273.704 254.427 276.837C258.512 280.788 248.571 277.791 247.345 280.788C243.804 280.38 239.31 280.652 241.217 276.02C240.672 272.887 239.174 269.617 238.221 271.933C233.318 275.066 231.82 271.115 234.407 269.208C232.501 266.892 230.185 269.072 229.505 265.121C224.602 263.759 227.734 272.342 222.968 269.889C223.512 274.385 216.158 271.524 219.835 269.344C216.158 269.753 210.574 268.663 207.987 271.66C204.446 272.75 202.403 268.254 201.995 273.976C198.726 277.382 194.368 277.246 190.555 275.884C187.423 277.519 184.971 278.472 189.465 280.788C187.286 284.876 193.96 286.647 194.641 288.963C192.053 292.232 197.909 294.549 196.956 297.41C198.181 300.679 198.999 303.949 199.407 307.491C195.321 308.172 201.314 312.805 197.773 314.848C197.092 316.892 201.995 314.031 202.267 317.437C199.816 319.616 197.637 322.614 193.96 322.069C191.781 325.066 188.376 318.118 186.878 321.933C181.43 324.112 184.835 317.3 179.796 319.616C174.076 321.796 175.03 326.837 170.944 331.06C175.438 327.927 185.652 374.248 176.255 347.137C169.037 353.676 186.742 368.39 172.442 357.218C161.683 365.938 189.329 370.842 192.053 382.559L193.551 387.736L194.096 388.417Z" fill="white"/>
<path id="Path_8" d="M213.298 557.081C212.073 553.13 214.932 546.182 214.524 548.634C213.162 544.138 218.201 543.321 218.065 541.141C218.065 538.144 221.061 535.691 222.695 533.784C224.057 532.558 224.738 530.514 226.372 527.789C223.24 525.882 227.189 523.021 228.415 522.612C225.827 521.25 228.551 513.212 225.555 518.661C221.878 513.621 226.645 515.392 225.146 511.713C225.146 509.261 222.014 509.67 222.423 507.081C219.018 506.809 215.886 507.354 214.66 504.765C213.162 502.177 216.839 501.087 215.75 497.817C219.971 496.318 214.66 491.822 218.065 489.779C218.746 487.054 216.975 486.782 216.294 484.874C219.699 481.332 223.24 483.512 226.1 479.288C229.368 480.787 226.917 486.509 230.594 484.057C227.325 480.515 234.271 476.427 234.816 479.833C235.905 473.43 240.672 480.378 242.715 477.654C247.073 477.79 249.252 473.158 253.746 474.111C256.47 469.888 258.512 480.242 260.691 474.248C262.053 473.43 263.143 470.569 264.368 469.752C263.551 467.299 271.586 470.978 267.909 467.436C265.73 464.575 270.769 457.218 271.314 460.351C269.271 458.444 266.956 457.899 268.863 454.629C268.863 449.725 272.676 455.583 275.127 453.676C279.485 452.858 273.902 448.362 274.582 445.501C271.042 441.005 276.217 441.005 278.668 439.37C279.621 437.054 280.711 434.738 281.937 432.559C286.703 431.332 289.291 428.608 288.065 424.657C291.606 423.703 291.742 420.297 294.602 419.071C292.559 416.891 295.011 414.439 293.104 410.897C295.964 409.398 289.972 403.948 292.832 402.859C290.244 402.45 283.979 401.769 287.52 398.635C280.983 398.226 287.248 395.229 286.567 394.412C282.209 391.551 287.52 388.281 289.154 385.556C284.116 385.147 288.065 382.286 286.839 381.878C284.116 381.333 281.664 380.107 279.621 378.336C282.481 375.747 275.263 376.428 277.851 375.338C275.672 371.524 274.038 369.071 269.135 370.842C268.182 367.436 266.411 376.019 264.913 371.387C260.01 371.524 265.73 362.804 259.329 365.12C255.244 361.306 255.652 370.706 252.248 368.254C251.158 370.842 252.384 374.521 248.979 376.019C248.162 379.698 244.349 378.472 242.715 381.333C241.761 380.652 238.22 386.374 240.672 389.78C239.31 392.913 235.769 393.322 234.407 396.864C231.82 395.502 227.462 397 227.734 399.861C225.419 406.673 222.15 405.583 221.197 405.038C217.248 406.128 214.932 401.087 212.481 401.496C210.438 400.542 207.715 400.679 207.987 395.774C209.485 390.869 203.493 392.232 200.633 390.733C201.586 386.237 197.228 392.232 194.232 389.235C196.547 409.67 202.539 407.491 201.314 414.166C193.823 402.586 187.15 376.156 175.71 375.066C172.851 387.872 168.084 430.787 169.446 432.286C180.477 422.613 177.345 436.646 169.174 440.597C163.726 465.665 168.22 500.269 148.609 518.934C137.442 529.833 166.586 521.659 162.637 533.784C157.053 550.133 167.948 532.422 173.259 543.321C182.384 549.588 193.279 546.182 198.045 555.31C201.586 562.122 207.442 558.988 213.298 557.081Z" fill="white"/>
<path id="Path_9" d="M479.953 99.5907C477.91 101.498 475.731 104.495 472.871 104.495C471.237 102.452 467.832 103.133 466.47 101.907C466.607 105.177 463.066 107.765 466.607 110.49C466.879 114.577 465.653 115.803 462.793 118.664C465.926 122.343 461.568 123.024 460.07 125.204C462.385 128.201 457.21 128.882 460.342 132.288C462.93 135.694 459.525 138.828 463.066 139.781C461.023 141.961 464.972 144.958 459.933 146.321C454.895 146.866 460.342 152.451 456.529 153.814C458.027 155.721 463.883 159.536 461.295 162.261C461.704 164.577 460.614 168.528 464.019 165.939C464.155 168.664 467.151 168.528 468.377 170.299C471.373 173.568 476.004 173.16 478.727 176.429C480.498 177.383 481.996 178.882 482.813 180.653C480.225 180.653 480.225 187.329 482.813 184.604C486.899 182.424 486.354 191.28 489.758 188.691C491.393 191.007 493.163 193.187 495.342 194.958C494.116 196.593 493.027 198.5 492.074 200.408C491.665 202.724 490.303 202.451 493.98 203.813C496.976 205.312 498.747 208.309 498.474 211.715C501.198 207.492 502.424 216.211 503.786 210.353C507.871 207.628 503.65 215.258 506.373 211.17C508.961 210.762 509.914 206.538 513.455 206.811C516.587 208.173 514.408 212.941 518.63 212.805C522.443 209.672 529.116 210.625 530.07 215.939C533.066 215.121 536.334 209.127 537.969 214.849C542.599 216.62 546.14 223.296 550.089 218.391C549.408 214.849 550.226 211.17 552.132 208.173C554.583 206.811 557.035 202.042 557.171 200.135C556.899 195.775 562.482 190.462 562.619 187.056C561.938 186.239 555.537 186.102 558.805 182.696C557.171 180.38 560.303 176.702 558.261 174.386C561.938 175.203 553.494 173.16 558.533 172.479C563.299 174.25 567.794 166.893 566.84 164.304C562.755 161.852 571.335 155.721 565.342 154.223C563.572 153.269 561.801 150.408 560.44 153.95C559.486 156.947 556.626 154.904 556.626 154.086C553.766 151.089 561.665 150.953 556.354 150.408C551.996 149.182 549.953 146.048 553.358 144.277C557.035 144.005 555.537 137.193 558.669 135.694C560.167 137.465 560.031 140.871 563.708 141.416C567.657 142.642 570.109 145.776 575.148 143.051C577.735 145.095 581.412 146.048 581.412 141.552C586.451 132.697 577.599 137.874 577.463 131.198C570.926 130.517 551.587 134.468 556.899 133.923C552.949 117.711 541.918 138.555 539.467 124.795C534.019 116.484 531.159 109.264 519.447 107.629C509.914 111.444 504.194 110.762 496.023 104.359C488.397 104.768 483.221 111.035 479.953 99.5907Z" fill="white"/>
<path id="Path_10" d="M310.944 313.213C314.758 316.483 320.614 312.532 325.108 316.211C327.968 315.529 334.096 313.213 334.233 317.982C337.773 317.846 332.598 321.933 337.637 322.614C340.361 321.524 339.68 324.794 342.949 324.794C344.447 329.426 347.579 332.559 346.217 337.736C347.851 340.87 350.711 345.638 346.489 347.137C346.489 351.905 341.587 350.952 340.633 354.221C336.003 354.494 341.723 360.216 343.493 361.306C345.672 363.758 345.264 367.436 342.949 368.254C340.497 372.069 346.217 373.704 344.447 377.654C341.587 380.515 340.225 385.148 343.493 385.011C341.178 384.739 335.458 379.834 337.501 385.693C337.092 390.052 331.917 391.415 330.011 395.638C329.602 398.908 327.696 405.992 329.194 403.131C329.33 405.992 322.248 405.583 326.061 409.807C328.785 413.485 319.797 410.488 318.435 413.622C316.528 409.262 311.762 418.39 309.719 414.575C307.267 411.578 303.59 406.946 299.641 407.763C296.645 407.627 294.057 411.578 293.376 405.992C293.512 403.267 293.785 400.679 289.699 401.224C284.252 402.177 290.925 396.319 285.205 397.137C287.112 395.093 288.474 393.458 285.205 392.368C284.66 388.826 292.151 386.782 287.929 384.058C285.205 384.875 290.38 380.379 285.614 380.924C284.388 378.336 277.034 379.698 282.345 375.475C280.03 372.75 275.808 375.202 276.08 370.297C273.629 368.254 269.543 370.706 267.773 368.799C266.547 373.976 261.781 368.935 263.824 365.529C262.598 362.668 255.244 365.393 258.648 361.442C261.645 360.761 260.419 355.447 263.279 357.9C265.322 356.81 267.228 351.224 265.866 348.499C272.812 352.178 273.084 339.916 267.909 341.415C265.185 340.325 266.684 336.238 266.684 335.012C268.999 332.014 262.189 328.608 267.637 327.655C267.501 323.295 274.038 326.429 274.991 323.568C275.263 320.162 283.435 321.388 280.575 320.025C281.937 315.666 284.388 320.162 287.112 318.663C289.563 317.301 291.742 316.211 293.24 320.298C296.509 320.434 298.415 312.396 300.458 317.164C303.318 313.622 307.948 315.802 305.088 317.301C308.902 318.254 309.038 316.756 310.944 313.35V313.213Z" fill="white"/>
<path id="Path_11" d="M385.439 182.015C387.209 185.966 390.341 182.015 392.793 186.102C393.201 188.691 397.968 190.053 395.653 193.187C393.337 196.32 400.011 198.909 397.832 197.274C399.194 202.587 403.415 194.004 402.053 199.863C406.139 199.999 404.505 206.13 407.91 207.628C404.369 211.988 411.45 206.811 409.68 211.17C408.046 215.939 415.127 212.26 417.17 213.486C421.937 213.759 420.711 210.898 424.116 212.533C423.026 207.083 427.657 218.391 428.882 211.988C432.287 210.625 437.598 212.397 441.003 210.217C438.415 205.312 446.859 207.219 449.583 208.446C452.715 208.309 450.128 212.397 454.486 212.26C450.264 217.574 457.482 219.208 457.209 215.803C459.252 218.664 461.976 221.661 457.209 223.568C458.026 225.339 460.205 226.02 458.98 229.018C462.112 229.971 462.384 228.337 464.291 231.334C466.742 235.012 469.602 228.473 469.466 232.424C473.279 233.241 472.326 240.462 476.276 235.285C477.774 236.375 480.497 236.783 481.587 233.786C483.902 235.285 484.447 238.418 482.949 240.734C482.132 241.96 480.77 242.778 479.136 242.914C477.91 245.503 479.136 245.366 481.042 246.32C479.953 249.862 484.038 251.906 483.766 250.816C483.085 252.587 483.221 254.631 484.447 256.129C482.949 257.9 482.949 261.579 482.268 263.214C481.042 266.347 480.089 270.434 476.139 270.707C473.143 272.069 473.552 275.884 474.233 275.611C471.509 278.2 473.416 281.47 475.322 281.061C476.003 285.557 480.089 282.151 481.587 285.966C484.992 288.009 472.19 286.374 477.91 290.461C479.953 292.233 476.82 294.412 480.089 296.32C479.544 298.5 482.676 300.679 479.816 302.587C478.591 303.404 475.731 309.262 480.77 310.08C479.136 313.35 471.373 314.167 470.964 308.854C467.696 308.036 464.019 312.123 460.75 308.309C456.12 307.628 457.073 315.121 454.622 318.527C453.668 322.75 452.443 328.063 450.264 331.333C448.221 330.243 449.719 326.02 447.404 325.611C450.809 323.295 443.046 320.434 443.454 325.066C440.322 323.023 432.151 320.706 437.326 323.704C431.198 319.617 434.057 331.061 430.244 330.652C428.201 331.742 426.976 333.649 426.703 330.516C423.843 330.107 422.209 332.287 419.213 329.834C416.625 331.197 414.31 332.559 412.948 329.29C408.999 330.652 410.088 323.84 411.723 323.704C414.855 321.933 415.264 320.843 414.038 316.619C416.762 313.35 413.221 307.764 409.544 310.489C408.454 306.81 405.05 308.309 402.598 306.129C403.96 300.679 398.104 297.137 397.151 292.233C394.563 291.006 393.746 298.772 393.61 296.728C391.431 296.047 388.707 301.906 388.843 296.32C386.8 292.233 383.396 299.453 381.081 294.685C377.812 298.227 375.769 295.775 372.773 293.459C366.236 291.143 373.999 285.829 370.73 282.015C372.501 278.2 372.365 273.295 369.368 270.571C370.594 266.211 367.462 261.579 366.917 257.355C362.968 254.767 361.197 252.178 364.602 247.955C367.189 243.731 357.929 239.099 364.193 238.146C370.322 239.644 363.376 234.059 365.964 231.879C364.466 229.971 362.695 227.383 361.47 226.838C361.333 222.751 371.82 225.612 368.96 220.026C370.594 217.982 366.917 215.394 370.73 213.759C375.769 211.034 374.68 205.448 370.594 203.269C370.73 199.181 367.598 198.364 365.147 196.593C368.688 194.685 371.411 191.28 369.096 187.737C370.049 183.65 373.182 184.74 376.178 183.786C379.31 184.604 381.898 183.378 385.166 183.514C384.213 182.288 385.166 182.424 385.439 182.015Z" fill="white"/>
<path id="Path_12" d="M175.03 322.477C177.073 320.843 181.158 318.118 184.699 318.663C182.248 324.249 188.104 320.434 190.419 320.161C190.691 321.66 192.053 322.614 193.551 322.341C194.232 322.205 194.913 321.796 195.322 321.251C200.633 322.069 197.637 318.526 201.314 318.799C202.54 314.167 196.139 319.889 197.501 314.303C200.361 312.26 194.913 307.9 198.999 306.946C198.045 304.221 197.909 301.224 196.82 299.862C197.501 295.911 192.462 294.14 193.824 289.371C193.96 287.873 186.469 285.148 189.057 281.742C186.469 280.107 183.746 277.519 187.695 276.837C192.053 273.976 199.407 278.881 201.314 273.295C201.45 268.936 206.625 270.707 208.532 271.115C210.711 267.846 216.975 269.344 220.244 268.936C221.606 269.617 218.474 272.887 222.287 271.252C222.287 267.301 226.917 271.388 225.555 267.437C227.462 262.532 231.003 266.075 230.594 260.489C229.777 255.448 236.042 252.451 234.544 248.772C236.042 245.911 237.948 241.688 236.45 239.236C237.948 235.83 238.085 232.56 242.715 235.693C248.571 240.325 242.034 232.696 245.983 232.56C247.89 235.285 250.341 231.197 253.201 230.925C256.47 230.516 253.201 227.247 256.47 225.203C260.011 224.249 260.964 221.661 263.279 218.936C260.964 216.756 263.552 213.759 265.05 214.849C267.092 211.988 265.186 210.762 266.411 207.356C261.645 205.448 263.552 200.135 265.594 201.77C268.182 199.181 271.45 198.909 265.867 197.274C263.143 196.729 259.738 196.048 259.057 191.824C256.742 191.416 257.695 194.004 254.155 192.506C250.341 191.688 251.295 187.737 247.209 187.874C242.715 186.102 247.345 176.293 239.991 176.429C235.497 177.519 233.863 179.563 230.458 182.152C229.641 184.468 226.1 181.607 224.602 182.969C225.828 177.247 223.376 179.563 220.108 177.519C219.427 174.25 219.972 170.844 216.158 170.98C217.248 175.067 210.711 176.838 211.937 174.795C210.03 176.838 206.08 172.342 203.493 175.067C201.314 176.702 196.411 180.108 196.003 176.293C192.189 177.519 190.964 179.427 192.053 179.154C189.874 177.247 189.329 177.656 187.287 174.931C183.746 174.931 183.337 173.568 180.205 175.34C176.119 171.661 178.979 178.473 177.617 180.244C181.567 185.149 175.03 189.781 177.753 194.685C177.345 199.863 182.111 205.04 179.524 209.263C175.302 209.263 173.395 211.443 172.851 215.666C171.625 217.982 170.672 221.252 169.174 223.704C164.816 224.113 162.364 219.072 159.232 220.162C159.368 224.386 150.788 222.342 150.925 227.519C146.567 230.516 140.438 226.702 135.944 230.925C134.582 230.108 129.679 232.015 130.496 235.421C130.224 241.552 127.773 238.963 127.5 242.233C125.594 242.914 119.465 243.186 122.053 242.369C120.419 240.462 119.193 247.546 115.243 245.23C111.839 245.775 118.376 250.543 109.115 250.271C116.061 257.219 105.166 255.857 118.648 258.718C123.278 250.816 150.244 259.263 142.889 261.17C137.17 253.132 124.777 256.674 124.096 265.938C140.847 268.663 125.457 280.925 131.45 290.325C143.298 298.227 140.302 309.943 149.563 313.077C156.781 316.483 163.726 320.434 170.263 324.93C171.625 324.385 171.353 319.48 175.302 322.205L175.03 322.477Z" fill="white"/>
<path id="Path_13" d="M307.676 125.476C307.403 126.975 308.493 130.653 311.625 129.018C315.439 131.334 320.614 129.7 324.972 127.52C326.197 128.882 327.968 129.563 329.738 129.836C331.1 129.427 332.598 133.242 334.913 129.836C336.275 128.337 342.948 131.062 341.042 132.016C345.4 133.923 351.8 139.373 347.715 135.149C349.213 136.512 352.618 133.106 353.707 137.193C356.431 137.193 363.649 136.92 360.244 135.83C362.423 137.601 365.692 134.877 367.598 136.375C370.867 134.74 375.225 134.74 373.046 134.332C376.859 134.468 375.225 138.691 375.633 140.735C378.902 141.961 379.583 146.185 382.034 146.321C384.758 147.411 389.524 152.588 386.937 150.817C388.299 152.043 392.52 152.451 388.162 153.541C385.303 153.95 389.524 155.313 386.12 157.629C389.388 158.174 390.341 161.307 388.162 164.168C388.98 167.574 394.972 164.304 391.295 168.528C388.707 173.568 385.575 170.299 387.345 174.386C385.575 175.885 385.303 182.56 385.847 179.972C388.707 182.152 384.622 181.47 383.124 183.241C378.902 183.378 374.816 183.241 370.731 184.331C367.326 185.421 368.96 190.462 368.96 191.824C366.781 195.912 362.559 198.091 358.746 199.318C360.516 195.503 353.707 197.683 354.524 199.318C351.256 199.999 345.536 198.773 342.948 199.726C345.127 198.228 347.034 195.094 344.583 192.369C341.723 191.824 340.906 190.326 340.225 187.056C337.365 187.601 335.049 185.013 333.143 187.601C331.1 182.56 328.513 189.917 325.516 188.01C322.656 189.781 318.707 189.508 320.205 185.83C322.248 183.105 318.843 181.198 318.707 180.38C319.388 175.476 314.758 181.198 313.396 176.974C309.582 176.293 313.26 168.8 307.812 169.345C309.582 166.075 304.544 167.846 304.544 164.577C301.956 163.487 302.228 160.762 304.135 158.446C299.641 156.811 304.816 151.362 300.594 149.999C302.092 146.866 296.645 145.367 298.824 142.506C295.828 143.323 298.007 139.781 295.964 137.874C298.143 137.601 303.182 137.329 304.135 134.604C306.995 132.288 304.952 128.201 307.812 126.021L307.676 125.476Z" fill="white"/>
<path id="Path_14" d="M366.1 289.644C369.641 289.916 370.731 294.685 374.408 295.911C376.723 302.042 380.809 291.824 382.443 297.41C385.575 297.955 388.571 293.459 388.163 299.044C390.478 301.088 392.521 297.546 394.155 296.728C394.291 294.821 396.47 289.916 397.287 296.047C400.147 299.181 401.918 303.132 402.19 307.355C404.914 308.854 407.501 307.355 407.91 310.761C411.315 310.216 415.128 311.715 413.357 315.938C413.221 320.025 414.038 322.614 409.408 323.567C408.318 326.973 400.828 325.202 404.097 330.243C404.914 334.33 405.322 338.417 405.458 342.505C406.957 346.864 397.696 343.05 400.011 348.635C404.641 350.543 399.602 352.995 400.692 356.81C398.649 359.534 404.778 361.033 403.688 364.712C405.458 370.434 412.813 370.706 412.54 377.518C414.992 381.196 406.957 382.286 409.272 387.191C410.089 391.959 413.357 382.15 414.719 388.553C415.809 387.736 420.303 385.42 418.941 387.327C421.937 387.327 421.801 384.057 425.614 385.556C426.568 388.826 433.241 384.875 429.564 389.916C431.198 393.049 438.007 394.275 435.011 394.003C439.233 395.774 433.649 401.496 434.875 402.45C430.245 398.907 427.929 405.038 430.926 404.629C430.381 408.172 433.241 408.58 428.066 409.943C430.926 415.392 423.98 411.033 424.116 415.665C422.754 420.024 418.805 419.071 415.4 420.161C415.4 424.793 410.225 420.706 409.953 426.7C407.229 429.016 403.28 424.793 405.186 425.474C403.416 423.022 401.101 420.978 399.194 421.932C399.466 417.027 393.338 419.343 393.883 422.068C390.478 424.384 388.707 423.294 388.163 419.071C387.209 415.256 385.575 410.215 382.034 414.711C379.719 414.984 377.676 415.256 377.812 418.935C375.633 422.068 373.863 414.03 372.093 419.343C372.229 422.749 368.824 423.43 369.233 427.245C368.552 429.152 367.326 434.33 366.1 434.057C362.696 431.605 367.19 424.657 362.696 425.202C362.559 420.433 359.836 418.39 357.112 419.752C358.61 415.392 353.98 413.894 352.345 417.3C348.941 420.433 347.987 424.384 346.217 428.607C344.719 431.741 342.812 436.646 338.318 434.602C336.139 433.376 333.415 433.24 331.1 434.329C328.649 439.779 325.244 430.242 327.695 431.332C326.197 429.97 331.372 424.657 327.423 422.885C324.155 419.343 326.878 416.755 324.155 413.076C328.24 413.076 327.968 410.079 325.789 407.354C330.419 405.583 331.372 401.224 330.419 402.177C334.096 399.861 327.287 396.864 332.19 394.684C333.551 390.733 340.497 388.962 337.501 383.785C339.816 385.147 346.353 388.689 344.855 383.921C342.812 380.243 347.579 374.248 342.676 371.115C343.766 368.254 346.081 368.254 345.536 364.575C345.127 360.624 336.139 356.946 341.45 354.766C341.859 352.586 345.945 353.131 346.762 349.453C346.353 347.137 350.847 346.455 348.941 342.913C349.077 340.052 344.855 337.464 347.443 334.194C345.4 330.924 345.264 325.202 341.042 323.704C340.361 320.843 333.551 318.527 335.458 320.434C339.271 317.982 332.598 318.254 334.096 314.984C335.458 310.897 338.727 308.445 343.629 308.309C346.625 310.761 351.801 305.039 348.396 302.45C348.396 296.728 350.166 295.911 350.166 297.818C353.435 297.273 353.843 292.096 356.703 295.502C361.47 295.23 362.015 291.279 366.1 289.644Z" fill="white"/>
<path id="Path_15" d="M560.303 242.505C560.984 239.917 558.805 236.647 556.49 235.966C552.405 237.601 555.809 231.061 555.945 229.835C556.626 224.386 548.046 225.067 546.412 221.525C543.416 218.391 538.241 216.62 535.653 212.805C532.385 217.574 528.98 216.347 526.393 212.533C523.533 209.263 517.813 216.075 516.179 211.988C512.91 211.443 516.315 205.993 511.14 207.901C509.778 209.399 504.603 215.802 504.739 211.443C505.011 208.718 503.105 214.44 502.151 215.666C499.291 214.849 500.517 221.524 496.704 218.527C497.385 222.342 491.937 219.753 493.163 223.841C496.023 224.93 492.618 227.928 493.435 230.108C491.392 230.789 487.307 225.475 487.715 228.881C485.536 232.832 480.225 229.018 479.408 233.514C477.501 237.192 484.311 230.38 484.175 237.056C486.217 240.325 480.906 243.731 480.089 243.595C478.046 245.775 482.949 244.004 481.587 247.546C481.178 250.816 485.673 248.227 484.311 252.042C481.996 255.039 487.443 254.767 484.311 257.083C483.766 262.124 481.859 267.028 478.727 270.979C475.322 270.707 473.552 273.976 476.003 275.475C473.007 276.292 472.326 280.788 475.731 280.243C475.731 284.739 480.498 281.742 481.587 285.284C486.081 287.873 478.182 287.737 476.82 288.826C479.136 290.461 482.949 297.001 479.544 294.412C480.634 297.682 482.404 300.407 480.498 302.859C480.089 304.766 475.867 306.129 479.136 308.445C483.902 311.17 478.182 312.941 475.867 313.349C474.778 316.483 479.953 316.347 478.863 319.616C480.498 320.979 483.766 320.434 483.085 323.84C483.63 327.382 489.214 322.75 490.439 320.57C491.937 320.57 495.478 322.886 495.07 325.338C501.062 326.428 504.194 323.295 506.646 318.663C515.362 310.352 513.591 298.772 526.665 293.186C526.801 280.925 537.015 276.02 544.369 267.573C552.541 259.671 559.759 250.543 550.089 249.726C554.72 245.911 552.677 241.007 560.303 242.505Z" fill="white"/>
<path id="Path_16" d="M584.545 138.01C582.23 141.007 581.14 148.909 576.51 143.868C573.65 142.915 568.611 147.002 567.657 143.051C563.299 142.915 558.669 139.781 558.805 136.511C556.626 137.874 557.443 144.822 554.039 144.822C548.727 149.182 561.393 148.501 558.261 151.634C555.401 151.77 559.078 155.176 558.805 154.359C560.712 152.724 562.074 148.909 564.253 152.315C566.84 152.451 567.657 154.495 569.019 157.084C565.478 160.762 569.019 167.165 568.066 165.122C567.385 170.026 561.801 174.386 558.124 173.296C562.21 173.841 558.805 174.931 559.759 178.609C558.805 180.789 559.35 183.514 559.214 184.74C561.257 186.102 564.934 184.604 563.436 188.282C561.393 191.143 557.988 196.457 558.261 199.181C557.988 203.132 554.175 206.947 551.996 209.399C549.817 213.078 551.587 216.62 549.817 219.617C543.688 221.797 552.949 223.841 554.856 225.203C557.852 227.791 556.082 231.879 554.992 234.467C557.443 234.467 559.486 236.102 560.031 238.418C562.074 243.186 563.163 242.369 562.619 245.23C569.292 250.543 582.093 239.644 577.872 239.236C583.591 233.922 575.42 222.206 581.412 212.941C579.233 200.135 589.039 187.737 591.082 174.386C591.354 160.353 608.378 154.767 610.557 142.778C601.023 139.373 594.486 136.511 584.409 137.601L584.545 138.01Z" fill="white"/>
<path id="Path_17" d="M311.625 574.247C315.439 573.974 315.983 571.522 319.524 571.386C319.797 566.345 327.015 570.023 328.785 567.299C326.061 564.574 324.155 561.985 320.341 564.301C315.711 563.893 316.8 559.533 314.213 557.49C315.166 554.084 322.248 556.4 319.797 551.086C314.349 549.724 322.657 547.817 319.524 545.092C320.75 542.912 316.8 542.231 318.707 540.051C318.435 536.1 312.851 533.92 314.077 536.509C311.081 536.372 306.042 534.193 307.54 530.923C305.905 527.926 306.859 524.247 309.583 522.204C313.668 524.656 310.4 517.98 313.532 517.163C315.847 514.983 316.392 519.343 319.524 517.163C322.384 518.253 323.201 514.71 325.38 518.934C328.104 516.482 330.419 513.484 331.1 517.163C333.824 511.713 338.727 520.024 343.085 516.209C349.758 519.479 354.524 512.394 349.622 507.49C348.941 503.266 352.618 498.362 356.295 504.084C359.972 502.449 363.513 501.495 365.692 498.498C368.415 497.408 371.684 500.405 369.914 495.637C370.186 493.048 369.233 486.373 374.816 490.596C381.217 493.048 376.723 483.239 382.715 485.419C384.213 483.103 384.758 479.697 388.163 478.062C388.844 474.247 382.851 476.7 382.851 473.43C377.812 474.52 383.396 466.209 382.987 468.525C387.345 464.847 381.217 464.438 378.357 465.937C377.949 464.029 372.773 458.716 374.68 460.487C371.139 461.986 376.178 455.719 373.182 454.084C373.863 450.269 374.408 447.136 370.731 444.002C373.182 437.19 361.742 434.738 364.194 427.654C362.559 426.291 365.828 425.338 362.287 425.201C361.742 419.616 354.116 418.934 356.567 419.752C357.793 415.801 350.983 420.024 353.026 417.572C350.575 420.161 346.762 428.88 348.26 425.746C346.625 428.88 345.4 434.738 341.178 435.419C337.501 435.828 336.684 432.967 333.415 434.057C331.917 435.556 329.194 438.689 328.513 434.057C327.287 431.605 326.47 430.515 327.423 426.564C331.1 423.566 321.703 419.888 325.244 416.346C324.563 411.033 314.894 413.621 317.618 413.621C316.392 411.305 312.306 417.572 310.536 416.21C306.995 413.894 304.544 407.082 299.096 408.716C297.189 408.308 291.333 410.896 294.738 414.438C295.691 416.21 286.703 430.923 294.33 419.752C291.333 420.705 292.423 424.384 288.473 424.656C290.925 428.88 285.886 432.15 281.392 433.239C281.528 436.645 279.349 439.779 276.08 441.005C265.322 416.891 296.645 526.291 275.536 446.182C275.536 448.771 279.349 451.904 276.217 454.084C272.812 452.994 270.905 457.081 269.816 452.722C269.135 455.038 267.637 457.626 270.769 458.307C273.629 460.624 268.863 466.209 268.045 466.346C271.859 467.435 266.82 472.204 264.777 469.07C265.322 471.523 261.781 471.386 261.917 474.384C259.329 475.746 257.831 478.471 256.061 474.247C254.018 472.885 251.703 476.019 248.979 474.929C246.255 478.471 240.672 480.242 237.267 477.245C234.816 480.787 228.96 479.425 231.683 479.697C228.823 480.514 233.318 486.918 228.415 485.283C226.236 482.013 226.781 478.743 223.104 483.375C220.788 482.83 218.337 483.648 216.839 485.419C220.244 486.509 218.065 488.961 218.201 491.686C215.613 492.367 220.925 497.272 216.158 498.226C216.567 500.542 215.477 502.176 214.66 503.948C216.294 506.672 219.427 505.446 223.104 506.536C223.24 509.125 226.1 509.942 225.964 512.803C228.279 514.438 222.15 516.89 225.419 516.754C229.368 513.484 226.781 521.522 228.823 523.294C226.781 524.247 224.602 525.473 226.917 527.926C224.874 531.332 224.738 534.738 221.878 535.283C220.38 538.28 217.248 539.506 218.882 542.912C215.341 543.729 214.932 547.135 215.069 550.814C209.212 554.22 221.878 561.168 221.197 560.895C228.551 571.113 241.625 562.803 250.205 566.618C265.185 572.612 253.746 553.539 265.866 556.672C276.217 561.849 286.022 562.939 294.057 568.797C295.555 574.383 305.769 566.209 311.625 574.247Z" fill="white"/>
<path id="Path_18" d="M536.879 403.676C528.571 404.357 535.653 405.174 528.98 407.899C524.213 407.218 524.622 403.54 519.992 403.131C519.175 405.447 514.953 413.076 522.443 410.488C522.988 413.485 525.984 415.665 524.486 419.48C524.213 423.294 512.365 423.43 515.77 421.387C513.046 420.842 505.964 422.477 508.007 423.567C505.283 423.43 508.552 427.245 505.011 427.518C502.968 429.152 498.202 426.973 499.836 430.924C500.108 435.011 494.933 436.101 491.392 434.875C492.209 438.689 487.17 441.686 492.346 444.275C490.848 445.501 489.213 448.907 486.353 446.319C481.723 443.594 482.54 447.545 484.447 449.725C480.906 450.133 481.995 456.809 481.723 453.267C484.174 455.583 487.579 455.038 490.711 456.264C488.532 459.67 494.661 458.716 492.754 462.122C492.618 466.209 492.754 467.027 491.528 467.708C488.941 468.389 487.988 462.94 488.26 468.253C485.945 471.114 481.859 471.931 480.225 468.389C476.82 468.798 480.089 462.395 475.322 464.711C473.007 461.85 469.466 466.346 467.696 462.259C467.559 459.942 470.283 455.447 465.925 459.942C462.521 456.945 459.388 461.441 455.303 461.305C452.443 465.665 450.808 461.441 451.217 458.308C447.54 454.493 442.092 458.58 446.178 462.804C448.221 465.12 448.766 468.389 447.54 471.25C449.038 473.021 451.898 473.566 452.851 477.109C456.256 480.242 449.991 482.149 448.221 485.283C443.999 487.735 445.633 488.825 444.952 493.457C442.229 497.272 444.544 501.904 438.824 499.043C434.466 497.681 430.925 520.705 435.555 506.945C432.695 508.852 428.065 510.487 425.478 513.757C437.734 511.305 443.318 526.972 451.626 520.705C437.871 498.907 449.174 512.531 454.077 518.798C466.879 522.885 458.163 505.446 466.061 512.122C479.816 514.847 448.493 525.882 472.598 523.43C478.863 525.61 480.633 536.509 492.754 534.056C498.202 537.054 498.202 545.5 503.785 540.596C502.151 534.738 514.136 543.593 514.544 543.321C517.132 535.555 524.35 541.413 530.478 535.419C538.922 536.645 531.159 526.018 536.198 526.7C540.828 518.116 549.953 519.206 553.494 509.806C561.801 508.988 563.844 498.362 570.926 497.953C578.961 495.501 576.373 490.188 581.548 481.877C589.039 478.471 588.222 461.577 579.369 468.798C569.564 473.975 562.074 463.485 553.494 461.305C546.684 451.223 547.638 444.003 552.677 433.512C563.844 429.834 550.498 418.39 542.326 416.619C545.05 408.172 537.56 410.488 536.879 403.676Z" fill="white"/>
<path id="Path_19" d="M511.276 315.257C506.373 319.48 504.466 327.927 496.704 325.883C492.89 327.518 494.116 320.025 490.03 321.796C489.486 325.747 480.225 328.472 482.676 322.205C479.544 322.205 480.225 323.84 478.182 319.48C478.863 316.619 473.552 316.755 475.322 313.758C470.147 314.712 470.828 306.538 466.198 310.625C462.657 312.396 457.209 305.72 457.209 312.805C454.349 318.799 453.532 326.565 450.4 332.014C445.361 332.287 450.128 326.701 445.77 326.156C449.038 323.159 443.318 322.477 442.91 325.883C440.186 323.022 439.505 327.382 436.917 324.521C430.517 321.115 434.875 332.832 429.019 332.287C427.248 333.24 425.75 329.153 425.614 331.197C423.571 331.469 423.162 331.469 420.439 331.742C418.396 328.608 413.221 335.42 412.404 329.971C406.411 331.742 412.131 322.614 407.092 326.02C401.645 326.565 406.82 332.15 405.322 335.693C406.411 338.281 406.139 341.823 406.139 344.412C403.143 345.638 397.832 345.638 402.462 349.317C403.007 351.905 401.236 354.902 400.419 357.491C403.688 359.807 404.096 363.622 406.275 367.709C411.178 369.071 412.948 374.385 413.629 378.335C414.31 382.286 407.229 382.695 410.089 387.463C411.178 382.014 414.719 387.872 416.217 386.374C418.941 388.008 420.575 382.968 424.524 384.057C426.976 386.373 428.61 384.466 431.198 386.918C431.198 388.962 433.785 393.73 432.151 392.504C437.054 390.324 438.279 398.09 435.147 400.815C436.509 405.447 433.104 401.496 431.878 401.768C435.419 403.54 427.793 405.311 432.151 406.946C431.742 409.943 426.703 408.853 428.882 412.668C423.98 412.123 424.524 416.619 421.392 419.343C418.124 418.935 415.536 419.752 414.855 422.204C412.676 423.567 410.769 421.932 410.769 426.291C405.594 428.063 410.088 434.466 410.633 438.962C414.31 440.324 412.812 447 416.353 448.771C417.306 450.542 416.489 453.812 416.489 455.992C420.847 452.722 422.618 458.716 426.431 459.398C426.295 455.31 434.602 451.496 432.696 457.899C435.692 459.67 433.921 451.087 438.279 455.31C440.458 456.673 445.089 461.305 444.544 455.31C449.447 454.357 452.851 457.081 452.443 462.122C454.349 458.989 457.618 460.351 461.159 458.035C463.746 455.719 465.653 461.169 468.104 456.537C470.283 457.626 466.061 465.392 471.509 462.395C473.96 462.259 476.548 462.803 478.727 463.893C478.591 467.436 481.587 467.981 484.038 469.479C487.443 468.798 486.626 461.986 490.439 465.937C492.754 464.438 491.392 461.986 492.073 459.67C488.26 459.942 490.711 454.22 486.353 455.855C483.902 454.629 479.816 454.493 480.634 450.27C479.135 446.455 485.809 450.814 481.859 446.319C480.906 439.915 489.486 449.452 490.03 443.73C492.209 443.458 485.945 440.46 489.622 438.008C490.984 435.419 489.622 431.332 494.525 434.193C496.84 432.967 499.564 431.877 498.202 429.425C498.066 423.975 504.058 428.471 505.964 424.657C502.968 420.978 513.727 419.071 512.365 420.433C515.361 420.025 525.712 423.022 523.124 420.161C525.167 416.619 521.49 414.03 522.035 410.488C514.544 413.213 517.268 405.719 517.949 402.586C529.252 400.815 515.361 404.629 527.618 405.719C530.206 406.128 531.023 401.632 534.972 401.905C543.416 400.134 549.408 402.45 555.537 395.365C562.074 393.73 564.253 378.88 554.175 375.883C557.035 364.984 537.696 362.123 547.774 352.995C563.435 347.954 545.05 332.014 546.14 333.785C548.455 320.57 541.237 304.358 522.035 315.938C515.906 322.75 523.669 332.423 509.369 333.377C497.248 332.695 524.622 322.069 511.276 315.257Z" fill="white"/>
<path id="Path_20" d="M425.206 514.983C424.525 511.304 429.7 510.215 429.972 509.125C431.879 508.988 436.918 505.582 435.556 505.174C432.151 502.313 438.961 494.82 442.774 499.315C443.046 496.046 445.906 490.187 444.544 487.19C448.085 484.874 451.218 481.877 453.669 478.335C451.762 476.155 450.4 472.749 447.949 472.613C446.86 469.479 449.311 464.438 445.77 463.757C445.225 459.397 440.459 458.035 437.19 456.128C437.463 458.171 432.151 462.395 433.105 456.536C430.109 453.13 428.883 461.305 426.023 460.76C422.618 457.899 420.848 455.719 416.762 457.354C416.217 453.403 418.669 450.133 414.447 447.817C414.447 441.686 409.272 440.052 409.272 434.602C408.591 431.605 407.91 427.926 406.548 427.109C403.416 426.7 403.28 420.842 398.785 422.886C400.283 419.752 394.7 418.253 395.789 423.158C392.657 423.158 389.388 426.428 388.299 421.251C387.209 417.027 386.529 411.85 382.307 415.801C378.493 414.984 380.4 421.114 376.178 420.569C373.046 415.392 373.999 423.294 371.276 423.839C370.458 427.79 369.233 431.605 367.735 435.419C369.914 438.689 373.727 440.733 371.82 445.229C377.949 448.635 372.093 454.084 375.497 458.308C371.548 462.122 379.447 467.844 378.902 464.166C377.132 468.253 387.209 461.441 385.575 467.844C382.307 468.525 384.622 473.021 381.081 472.885C385.439 473.839 382.579 474.929 385.575 475.065C392.248 476.155 387.346 481.196 384.758 483.375C385.711 488.28 377.132 485.01 379.447 490.869C376.587 494.683 369.369 487.054 371.003 493.593C370.731 495.364 372.637 502.04 368.279 499.315C363.921 498.634 363.921 504.492 359.019 503.948C355.75 508.035 351.12 498.225 350.439 505.991C350.303 509.261 353.435 511.032 352.482 514.165C350.984 517.571 346.898 519.07 343.493 517.435C343.357 517.435 343.221 517.299 343.085 517.163C339.544 521.114 333.824 513.212 331.917 517.844C332.054 523.293 328.513 517.026 325.653 519.751C322.929 519.479 323.882 516.209 320.478 518.798C317.618 515.936 316.12 523.293 314.894 516.89C312.034 517.844 313.804 521.931 311.898 523.566C308.085 522.34 306.45 528.062 308.629 531.331C307.131 533.92 312.851 536.781 314.758 535.282C315.983 537.326 321.022 537.462 319.524 542.094C319.252 542.367 322.112 544.819 321.022 546.726C323.882 551.086 315.711 548.089 320.75 551.086C323.61 556.808 315.983 554.628 315.166 558.171C319.388 559.397 316.664 564.71 321.839 563.484C325.108 560.759 328.376 565.527 329.738 567.98C327.696 571.113 320.75 567.162 320.069 572.203C316.528 572.748 315.439 575.064 311.353 575.2C310.944 581.876 325.244 593.456 333.143 585.146C342.268 585.146 352.754 597.271 356.431 585.691C361.606 577.516 380.945 589.097 375.497 580.241C368.688 569.751 372.365 563.756 369.505 555.582C371.82 547.953 373.182 548.77 373.455 538.143C374.408 541.004 390.342 524.792 396.879 520.705C407.501 515.528 418.396 502.994 400.964 516.754C402.599 511.577 425.887 501.904 414.175 507.898C418.124 501.086 420.575 514.302 425.206 514.983Z" fill="white"/>
<path id="Path_21" d="M321.975 580.378C325.516 585.282 318.162 583.511 321.975 580.378V580.378Z" fill="white"/>
<path id="Path_22" d="M425.75 76.1574C424.116 79.4272 428.746 81.7432 425.205 85.0127C423.707 88.5547 427.521 89.2367 424.797 92.3697C420.847 94.0047 421.256 99.9997 416.626 98.9097C416.762 100.136 416.762 105.313 417.851 104.087C419.077 106.675 415.128 108.31 417.443 111.307C416.626 112.261 417.17 120.163 413.629 115.803C412.54 114.441 410.497 114.168 409.135 115.258C408.318 115.939 407.773 116.893 407.91 117.983C404.505 116.484 400.828 118.937 398.24 120.708C400.828 122.751 397.423 127.247 400.964 127.111C402.734 128.337 404.505 131.879 400.283 131.198C395.244 130.108 397.696 133.923 397.832 136.375C391.703 138.283 403.007 137.193 399.057 141.007C396.061 142.779 396.47 146.593 392.657 147.547C390.205 149.863 391.976 154.631 388.98 154.359C387.618 157.22 387.073 157.084 390.205 158.718C390.886 162.261 387.073 166.212 392.793 164.577C396.47 167.71 389.116 168.528 390.478 172.342C384.622 174.386 390.341 174.386 386.801 176.702C386.801 179.563 388.026 180.653 388.162 183.65C392.929 181.062 394.972 188.827 397.559 190.871C397.015 194.958 395.108 194.549 398.649 196.729C399.602 201.089 404.233 192.914 403.007 199.318C407.637 199.726 406.003 207.764 410.633 208.854C410.906 212.397 409.68 213.35 414.038 212.805C416.217 212.533 422.209 213.895 420.303 212.805C422.345 209.263 424.388 213.623 423.98 210.08C426.159 210.08 427.793 216.075 429.155 210.898C432.151 210.353 440.05 211.579 439.914 209.399C439.777 204.903 446.995 206.266 449.855 207.901C454.486 206.947 449.992 212.124 455.031 211.443C453.396 217.301 455.848 211.034 457.89 215.258C459.661 217.846 463.883 222.069 458.163 223.704C460.478 223.841 460.069 227.519 460.342 229.154C464.291 225.475 463.202 232.015 467.56 231.742C468.241 226.565 475.186 236.102 473.007 235.557C473.688 237.056 477.365 233.241 478.319 235.012C478.999 230.925 481.996 228.745 485.945 230.244C488.26 224.794 489.35 232.832 492.754 229.563C493.708 229.018 493.027 226.02 494.116 224.522C490.848 223.841 493.844 219.345 496.023 220.026C496.023 215.939 500.926 220.298 500.653 214.985C505.011 215.258 500.245 209.944 498.066 212.124C498.883 208.037 495.342 204.495 492.346 203.813C488.669 202.315 493.98 199.726 492.891 196.32C498.883 194.822 489.35 193.459 491.529 190.735C487.852 191.552 480.225 185.285 483.63 185.285C479.544 188.827 481.315 182.152 480.089 181.743C484.447 180.38 479.408 176.974 477.365 176.021C475.322 173.705 470.556 173.432 468.377 171.116C465.789 169.073 464.427 166.484 461.704 167.71C459.116 163.487 463.746 160.081 458.708 156.811C458.027 154.904 453.941 155.176 456.665 152.451C459.525 151.498 454.622 146.184 459.525 145.64C464.836 145.231 465.245 140.19 462.521 141.007C459.116 139.373 460.614 139.509 460.887 134.059C459.116 131.334 457.618 127.656 460.069 126.43C457.209 122.615 466.743 123.16 462.385 118.528C464.019 115.258 466.334 109.672 466.334 112.67C466.606 109.672 462.385 107.356 465.517 105.04C465.789 102.452 467.424 99.0457 469.739 102.452C473.143 101.498 475.186 106.403 477.093 100.817C482.677 99.9997 479.136 94.9587 476.684 97.1387C470.42 91.1437 457.754 90.0537 454.486 83.2419C453.532 76.5662 452.851 70.7079 456.12 64.0322C446.314 59.6726 447.676 81.062 434.739 77.5198C431.606 77.1111 428.882 75.2038 425.75 76.1574Z" fill="white"/>
</g>
<path id="paris" d="M348.5 138.178C342.435 138.178 337.5 143.113 337.5 149.171C337.46 158.033 348.082 165.381 348.5 165.678C348.5 165.678 359.54 158.033 359.5 149.178C359.5 143.113 354.565 138.178 348.5 138.178ZM348.5 154.678C345.461 154.678 343 152.217 343 149.178C343 146.139 345.461 143.678 348.5 143.678C351.539 143.678 354 146.139 354 149.178C354 152.217 351.539 154.678 348.5 154.678Z" fill="#6991D1"/>
<path id="valenciennes" d="M411 35.4277C404.935 35.4277 400 40.3627 400 46.4207C399.96 55.2827 410.582 62.6307 411 62.9277C411 62.9277 422.04 55.2827 422 46.4277C422 40.3627 417.065 35.4277 411 35.4277ZM411 51.9277C407.961 51.9277 405.5 49.4667 405.5 46.4277C405.5 43.3887 407.961 40.9277 411 40.9277C414.039 40.9277 416.5 43.3887 416.5 46.4277C416.5 49.4667 414.039 51.9277 411 51.9277Z" fill="#6991D1"/>
<path id="havre" d="M241 75.4277C234.935 75.4277 230 80.3627 230 86.4207C229.96 95.2827 240.582 102.631 241 102.928C241 102.928 252.04 95.2827 252 86.4277C252 80.3627 247.065 75.4277 241 75.4277ZM241 91.9277C237.961 91.9277 235.5 89.4667 235.5 86.4277C235.5 83.3887 237.961 80.9277 241 80.9277C244.039 80.9277 246.5 83.3887 246.5 86.4277C246.5 89.4667 244.039 91.9277 241 91.9277Z" fill="#6991D1"/>
<path id="montpellier" d="M403 481.428C396.935 481.428 392 486.363 392 492.421C391.96 501.283 402.582 508.631 403 508.928C403 508.928 414.04 501.283 414 492.428C414 486.363 409.065 481.428 403 481.428ZM403 497.928C399.961 497.928 397.5 495.467 397.5 492.428C397.5 489.389 399.961 486.928 403 486.928C406.039 486.928 408.5 489.389 408.5 492.428C408.5 495.467 406.039 497.928 403 497.928Z" fill="#6991D1"/>
<path id="lyon" d="M414 348.428C407.935 348.428 403 353.363 403 359.421C402.96 368.283 413.582 375.631 414 375.928C414 375.928 425.04 368.283 425 359.428C425 353.363 420.065 348.428 414 348.428ZM414 364.928C410.961 364.928 408.5 362.467 408.5 359.428C408.5 356.389 410.961 353.928 414 353.928C417.039 353.928 419.5 356.389 419.5 359.428C419.5 362.467 417.039 364.928 414 364.928Z" fill="#6991D1"/>
</g>
</g>
<defs>
<filter id="filter0_d_521_27" x="0" y="0" width="614.557" height="598.7" filterUnits="userSpaceOnUse" color-interpolation-filters="sRGB">
<feFlood flood-opacity="0" result="BackgroundImageFix"/>
<feColorMatrix in="SourceAlpha" type="matrix" values="0 0 0 0 0 0 0 0 0 0 0 0 0 0 0 0 0 0 127 0" result="hardAlpha"/>
<feOffset dy="4"/>
<feGaussianBlur stdDeviation="2"/>
<feComposite in2="hardAlpha" operator="out"/>
<feColorMatrix type="matrix" values="0 0 0 0 0 0 0 0 0 0 0 0 0 0 0 0 0 0 0.25 0"/>
<feBlend mode="normal" in2="BackgroundImageFix" result="effect1_dropShadow_521_27"/>
<feBlend mode="normal" in="SourceGraphic" in2="effect1_dropShadow_521_27" result="shape"/>
</filter>
</defs>
</svg>
