<svg width="607" height="624" viewBox="0 0 607 624" fill="none" xmlns="http://www.w3.org/2000/svg">
<g clip-path="url(#clip0_161_227)">
<g filter="url(#filter0_d_161_227)">
<path d="M342.217 10.5723C339.902 11.7984 337.314 12.6158 334.727 13.1608C333.773 12.8883 332.956 13.297 332.275 12.7521C330.369 13.4333 328.462 13.9782 326.555 14.2507C325.466 14.7957 324.376 15.3406 323.151 15.6131C321.789 16.2943 320.155 15.7493 318.793 16.1581C317.295 16.2943 315.797 16.703 314.299 16.9755C313.345 17.1117 312.528 17.3842 311.711 17.9292C310.213 17.7929 309.123 18.8828 307.625 19.0191C306.127 19.2915 304.765 20.109 303.812 21.0627C302.042 22.0163 301.361 24.4686 299.318 24.7411C298.637 25.0136 297.411 24.7411 297.139 25.6948C297.547 27.8746 298.773 30.0544 298.228 32.3705C298.228 34.2778 296.322 35.504 296.594 37.4113C297.003 39.7274 297.139 42.0434 297.139 44.3595C297.003 45.4494 297.684 45.9944 298.228 46.6755C299.182 47.9017 297.547 46.948 297.139 47.7655C296.867 50.354 297.003 52.9425 296.594 55.3948C296.049 56.076 296.186 57.1659 296.867 57.7109H297.003C297.411 57.8471 297.82 58.1196 298.228 58.3921L299.59 58.8008L299.727 58.937L300.135 59.6182H300.271L300.407 59.8907L300.544 60.4357H300.68L301.225 60.8444V60.9806L301.905 60.5719V60.4357H302.314L302.586 60.2994H302.723L303.676 60.1632H303.812L304.221 59.7545L304.357 59.6182L304.902 59.482L305.174 59.2095L305.446 59.0733L306.536 59.2095H307.353L307.625 59.3458L308.306 59.8907L308.442 60.0269L309.532 60.4357H309.668L309.804 60.7081L310.485 61.1169L310.622 61.2531L310.894 61.9343L311.302 62.2068H311.439H311.575L311.847 62.343L311.983 62.4792H312.528L313.481 61.3893L313.618 61.2531H313.89H314.162L314.979 61.9343L315.116 62.2068V62.4792V62.6155L314.979 63.0242L314.843 63.1604L313.89 63.8416L314.026 64.1141H314.162H314.299L314.707 64.2504L315.116 64.6591L316.205 65.0678H316.341L316.614 65.3403H316.75V65.4765L317.022 65.6127L317.567 65.4765H317.839L318.248 65.749L318.384 65.8852L318.793 66.2939H319.065H319.337H319.61L320.155 66.5664L320.291 66.7026L320.427 66.8389V67.2476L319.882 67.6563L320.018 67.9288V68.2013L320.427 68.61L320.563 68.7462L320.699 69.0187V69.4274H320.972L321.653 69.5637L321.789 69.2912L322.197 69.1549L323.015 69.5637L323.151 69.6999L323.287 69.8361L323.423 69.9724L323.559 70.2449L324.376 69.4274L324.649 69.2912H324.785L324.921 69.1549L325.194 69.0187H325.33L325.738 68.8825L326.147 68.61L326.828 69.1549H326.964H327.509L327.917 69.4274V69.5637L328.053 69.4274H328.19L328.734 69.2912L329.415 68.4738L329.824 68.3375L330.641 68.7462L330.777 68.8825L330.913 69.1549L331.05 69.4274L331.731 69.0187H332.003L331.867 68.7462L331.458 68.61L331.322 68.3375L331.594 67.9288L332.275 67.7926L332.411 67.6563L332.956 67.7926L333.092 67.9288L333.229 68.065L334.182 69.6999V69.4274L334.318 69.2912L334.727 68.7462L335.135 68.61L335.68 68.2013L335.816 68.065H335.952H336.361L336.769 68.3375H337.314H337.45L337.859 68.2013H338.131L338.54 68.4738L338.676 69.0187L338.812 69.1549L338.948 69.4274L339.493 69.6999H339.629L339.902 69.8361L340.038 69.9724L340.174 70.1086L340.31 70.2449L340.447 70.5173V70.7898V70.926V71.0623L340.174 71.471H340.038L339.766 71.6072H339.629H339.493L339.221 71.7435H339.085L338.268 72.2884H337.995H337.859H337.45L336.906 72.5609V72.9696L336.633 73.2421H336.497H336.225L336.089 73.5146L335.816 73.7871H335.68V74.1958L335.544 74.4683L335.271 74.7407L334.999 75.9669V76.1031H335.408L335.816 76.3756L335.952 76.5118L336.361 76.7843H336.497L336.769 77.0568L336.906 77.6018L337.45 76.1031L337.587 75.8307L337.723 75.6944L337.859 75.4219L337.995 75.2857L338.131 75.0132L338.404 74.7407H338.812H338.948L339.085 74.6045H339.221H339.902L340.719 74.4683H340.991L341.264 74.7407L341.945 76.1031L342.081 75.9669L341.945 75.2857V75.0132L342.217 74.6045L342.626 74.4683L343.306 74.7407H343.443L343.715 74.6045H343.987L344.124 74.7407H344.26L344.532 75.2857L344.396 75.5582L344.26 75.6944L343.715 76.2394V76.3756L344.396 76.6481L344.532 76.7843L345.213 76.6481H345.349H346.03H346.166L346.303 76.7843L346.439 77.0568V77.193L346.575 77.3293H347.256L347.392 77.193L347.801 77.0568L348.345 77.3293L348.482 77.4655H348.754H349.026L349.435 77.6018L349.299 77.4655V76.9206L349.571 76.6481L349.707 76.5118H349.843L349.707 75.6944L350.116 75.2857H351.069H351.342L351.478 75.4219L352.295 76.1031L352.431 76.2394L352.84 76.3756L353.384 76.2394L353.793 76.3756L353.929 76.5118L354.065 76.7843L353.929 77.3293V77.4655L354.065 77.8742V78.1467L353.793 78.9641V79.1004L353.248 79.6453V79.7816V79.9178L353.112 80.3265L352.431 80.8715L353.112 80.7352L353.248 80.4628L353.521 80.3265L354.065 80.1903L354.474 79.6453L354.61 79.5091H355.155L355.7 79.2366H355.836L355.972 78.9641L356.108 78.8279L356.653 78.4192H356.925H357.198L357.606 78.8279V79.6453H357.742L358.015 79.9178L358.559 81.0077V81.4164L358.423 81.8251L358.968 81.5527H359.24H359.921L360.058 81.0077L360.602 80.7352L360.875 81.0077V80.8715L361.011 80.7352L361.147 80.599H361.283H361.556H361.692L362.1 80.7352H362.237L362.373 80.8715L362.645 81.144L363.19 80.7352H363.326H363.462L363.735 80.599H363.871L364.143 80.3265L364.416 80.1903L364.824 80.3265H364.96H365.096L366.186 80.599L366.322 80.7352L366.867 80.8715L367.139 80.7352L367.275 80.599H367.956L368.093 81.0077L368.773 81.4164L368.91 81.6889V81.9614L369.182 82.3701H370.135L370.544 82.7788H370.68H370.816L371.361 82.9151L371.497 83.1875L372.587 82.9151L373.812 82.0976H374.221H374.357L374.63 81.9614H374.902L375.038 82.0976L375.447 81.8251H375.719H375.855H375.991L376.264 81.9614L376.536 82.5063V82.6426L376.672 82.7788L377.217 82.6426H377.353H377.49H377.626L378.579 82.7788H378.715L378.988 82.3701L379.124 82.2339L379.26 82.0976V81.8251L379.396 81.6889L379.668 81.5527H380.622H380.758L381.303 81.8251L381.439 81.6889H381.847L382.528 82.0976H382.801L383.073 82.2339L383.209 82.3701V82.5063L385.525 82.6426L386.069 82.0976V81.9614V81.8251L386.342 81.5527L387.159 81.2802L387.704 80.599L387.84 80.4628L388.248 80.3265H389.065H389.338H389.883L390.019 80.4628L390.427 80.7352L390.563 80.8715L391.244 81.0077L391.381 81.144L392.062 81.8251L392.198 81.9614V82.0976L392.334 81.9614H392.47H392.606L393.56 81.4164H393.832H393.968V80.8715L394.104 80.599L394.513 80.1903L394.785 80.054H394.921L396.556 79.3729H396.692L396.828 79.2366H397.373L397.645 79.5091L398.599 80.054L398.735 80.1903L399.824 80.3265H399.96L400.097 80.4628L400.233 80.599L400.778 80.4628H401.05L401.867 81.0077L402.412 80.599H402.548H402.82L403.229 80.7352L403.637 81.144L404.455 81.2802H404.591L405.272 81.6889L405.408 81.9614V82.2339V82.3701H405.544L405.68 82.6426V82.9151L406.634 82.3701L406.77 82.2339L406.906 82.0976L407.859 81.8251H407.995H408.268H408.404L409.63 80.8715H410.038L410.311 81.0077L410.447 81.144L410.583 81.4164L410.719 82.0976V82.3701L410.038 84.005V84.1412H410.855L411.264 84.4137L411.4 84.8224H411.673L411.945 84.9586L412.217 85.0949L412.762 84.8224H413.034L414.396 85.0949L414.669 85.2311L414.941 85.5036L415.077 85.7761L415.486 85.6398H415.622H415.758L417.12 85.2311L418.073 84.8224C418.346 84.4137 418.073 83.8687 417.665 83.5963C417.12 82.7788 417.937 81.8252 418.482 81.2802C419.571 81.5527 419.708 80.4628 420.525 80.054C421.069 80.054 421.478 79.7816 421.478 79.2366C421.478 78.8279 421.342 78.5554 421.069 78.4192C420.252 77.8742 419.98 76.7843 420.252 75.8307C420.389 74.877 418.754 74.7407 418.21 75.4219C416.848 75.6944 417.392 74.6045 417.392 73.9233C418.346 73.6508 417.937 72.5609 418.346 71.8797C418.754 71.1985 417.665 69.9724 418.89 69.8361C419.435 69.1549 419.708 68.065 420.797 67.7926C422.023 67.1114 420.525 65.6127 419.571 65.6127C419.299 64.5228 417.937 65.0678 418.754 66.0215C419.163 66.9751 417.256 67.1114 417.529 66.0215C416.575 65.4765 417.256 64.1141 416.167 63.7054C415.622 62.888 414.805 63.1604 414.396 62.343C413.443 61.9343 413.171 60.9806 412.762 60.1632C411.673 60.7081 410.583 60.9806 409.494 60.9806C408.54 61.3893 407.451 62.2068 406.225 61.798C405.953 60.8444 404.863 61.1169 404.318 60.4357C403.501 60.0269 402.957 60.9806 402.139 60.4357C401.186 60.5719 400.233 60.1632 399.416 60.8444C398.599 61.2531 398.735 62.4792 398.462 63.2967C397.373 62.2068 397.781 64.5228 396.828 63.2967C396.147 62.0705 395.602 60.7081 395.33 59.3458C396.011 58.5283 396.147 57.4384 395.739 56.4847C395.602 55.5311 396.011 54.5774 395.194 53.76C394.922 52.9425 393.832 52.6701 393.696 51.7164C393.287 51.1714 392.47 50.2178 391.925 51.0352C390.836 50.354 389.474 50.4902 388.521 51.1714C387.295 51.0352 388.112 49.6728 388.521 49.2641C388.248 48.8554 386.75 48.0379 386.342 48.7191C386.069 49.5366 385.252 50.0815 384.299 49.9453C383.209 49.9453 382.392 50.7627 381.439 50.7627C380.758 49.9453 379.668 49.9453 378.988 49.2641C378.17 49.1278 377.898 48.1742 377.353 47.7655C377.217 46.5393 377.626 45.4494 377.49 44.2232C377.353 43.2696 376.264 42.7246 376.4 41.7709C376.128 40.8173 375.447 39.9998 375.719 39.0462C376.809 38.6375 376.264 37.9563 375.855 37.2751C376.264 36.3214 375.038 35.9127 374.221 36.0489C373.54 35.504 373.404 34.8228 372.995 34.1416C372.723 33.1879 371.906 32.5067 371.77 31.4168C371.089 30.8718 369.999 30.7356 369.182 31.1443C368.774 31.9618 367.684 32.2342 367.003 31.6893C366.05 31.6893 365.641 32.643 364.688 32.5067C364.007 32.643 363.326 33.5966 362.645 33.4604C362.1 33.0517 361.011 34.1416 361.692 34.6865C360.875 35.0952 361.419 36.1852 360.466 36.5939C359.921 37.9563 359.513 37.1388 358.832 36.4576C357.879 36.7301 357.47 35.7764 356.789 35.504C355.563 36.0489 353.793 35.3677 354.201 33.7329C353.384 33.4604 352.84 32.7792 352.84 31.9618C352.022 31.6893 351.478 31.1443 351.069 30.4631C351.614 29.1007 349.843 29.237 349.163 29.1007C348.618 28.692 347.801 30.0544 347.12 29.1007C346.711 28.4195 346.984 27.3296 345.894 27.1934C345.758 26.376 346.575 25.5585 346.166 24.7411C345.758 23.9237 346.303 22.97 345.485 22.425C345.758 21.6076 346.575 21.1989 346.847 20.5177C347.801 20.3815 346.847 19.0191 346.439 18.7466C346.439 17.9292 345.758 17.248 344.941 17.1117C343.987 16.0218 344.26 14.2507 343.851 12.8883C342.898 11.7984 342.626 11.1172 342.217 10.5723Z" fill="white"/>
<path d="M237.898 122.56C238.17 126.239 239.123 129.372 238.578 132.37C243.345 129.1 238.715 136.184 239.804 135.776C243.89 136.593 241.166 141.225 244.026 142.315C241.983 144.359 244.298 146.675 241.575 147.628C244.979 148.991 245.252 153.35 242.119 156.62C243.617 162.07 252.061 155.666 252.47 160.98C251.108 164.25 262.684 165.476 259.007 170.653C258.462 170.925 260.096 175.012 262.003 172.56C264.182 168.473 269.902 171.47 272.761 167.383C275.621 169.563 275.213 162.751 277.664 166.566C280.66 166.293 285.563 168.609 287.061 165.067C283.929 160.026 294.824 161.116 290.874 156.075C293.053 155.53 294.688 152.805 291.691 152.942C293.19 150.762 288.423 146.13 293.326 146.947C294.279 144.904 300.407 146.947 300.271 141.498C301.361 138.228 302.178 129.917 306.808 134.141C306.4 130.326 305.174 126.784 303.131 123.514C303.676 120.517 309.396 116.021 303.948 117.928C302.995 116.157 305.174 113.16 302.178 112.206C303.267 110.027 302.314 106.621 304.629 104.441C300.544 107.574 303.948 98.7188 306.263 99.5358C302.586 95.9938 304.357 89.0455 298.092 87.8194C295.777 84.5497 291.419 81.8249 290.057 79.5088C275.894 90.9529 253.831 90.1355 237.898 101.171C214.473 111.116 238.715 127.193 243.89 120.653L240.757 121.743L237.898 122.56Z" fill="white"/>
<path d="M150.465 176.102C153.461 179.645 152.78 185.23 156.866 187.138C159.998 188.773 162.041 184.685 163.948 183.323C166.672 180.053 170.757 185.094 174.298 184.004C177.839 186.456 179.473 183.051 183.15 185.094C186.01 186.048 187.508 190.407 189.143 188.228C189.143 186.593 194.045 185.094 193.501 188.5C197.859 186.729 200.855 182.778 205.621 184.685C206.847 187.001 209.298 182.369 210.796 183.868C210.66 181.552 213.52 178.963 215.563 182.233C218.968 183.051 214.473 187.683 218.695 188.5C224.279 185.23 218.968 196.266 224.006 192.042C226.458 195.04 227.547 188.636 230.543 189.181C230.952 186.32 240.077 184.277 241.575 189.726C241.438 193.677 241.847 199.127 247.022 198.037C247.022 201.307 252.061 203.759 254.376 200.898C256.828 202.669 259.415 209.345 261.867 204.168C260.913 200.217 258.326 199.672 259.824 196.538C262.956 194.495 267.723 194.086 268.54 189.454C265.135 186.729 270.174 184.413 266.633 182.369C265.816 180.053 260.505 178.963 261.73 175.012C260.232 173.786 256.555 168.882 257.509 170.925C263.365 166.021 250.018 165.203 251.789 160.299C250.427 158.528 248.656 161.116 245.524 159.345C241.983 160.844 240.621 154.985 243.345 152.806C246.069 148.991 238.034 148.991 241.983 145.857C242.119 146.402 241.983 141.77 242.664 141.634C239.94 140.68 243.617 136.048 239.259 135.912C240.213 131.28 235.991 129.372 238.442 131.28C236.4 129.236 240.077 120.381 233.676 122.969C216.925 139.999 196.088 125.422 176.069 125.013C169.532 132.778 157.138 112.343 165.037 110.435C166.672 97.0841 147.878 112.07 139.434 105.122C127.041 97.7651 140.524 117.656 139.026 126.103C147.197 125.966 142.703 136.321 150.874 136.593C145.835 146.539 151.691 149.945 150.874 152.533C149.512 160.707 148.422 172.969 160.271 175.694C156.73 175.557 154.006 177.601 150.465 176.102Z" fill="white"/>
<path d="M417.528 85.6398C414.532 86.7297 407.587 86.0485 409.629 81.5526C405.952 84.8223 404.727 81.8251 401.458 81.6889C398.734 80.054 395.194 79.7815 393.832 81.9613C391.108 82.915 388.929 78.9641 386.341 83.0513C382.392 80.8714 379.532 84.1412 376.264 82.6425C373.54 82.7788 369.59 83.7324 367.275 81.2801C363.053 79.3728 359.921 82.5063 356.516 82.3701C358.695 77.193 353.793 82.0976 351.341 81.0077C353.793 79.1003 352.839 75.0132 350.66 76.5118C351.614 80.7352 346.03 76.9205 343.442 76.3756C343.442 73.5145 336.769 72.2884 339.357 75.1494C337.45 76.1031 337.45 80.4627 335.271 76.9205C331.867 74.1957 338.404 71.3347 339.493 70.2448C337.314 66.7026 334.182 71.6072 332.956 69.1549C330.232 70.3811 326.555 69.1549 323.695 71.0622C321.925 70.7898 319.337 69.4274 319.882 67.1113C317.294 65.6127 312.392 65.0677 314.571 62.0705C311.575 65.7489 308.17 56.8934 304.357 60.9806C299.863 63.9778 294.415 53.0787 295.505 65.7489C310.758 72.5609 285.563 69.6999 289.785 79.2366C292.917 78.5554 292.372 82.7788 295.368 84.0049C299.863 87.8196 305.038 90.5444 305.446 96.948C306.4 98.855 308.987 100.899 305.446 100.899C305.174 103.078 301.497 105.803 305.582 104.168C306.263 106.621 302.995 107.71 304.084 110.435C303.54 112.07 306.263 116.021 305.174 117.656C309.123 114.931 306.808 121.198 304.629 122.152C304.221 124.604 307.08 127.601 307.217 131.416C310.485 137.002 304.084 132.233 303.54 135.231C306.263 136.457 303.54 140.271 307.898 138.773C312.392 141.225 317.022 138.637 321.516 137.41C323.423 140.271 327.917 138.228 328.326 141.089C330.913 140.271 332.275 136.729 334.182 140.816C338.267 139.863 340.855 145.449 342.625 143.405C343.987 148.582 347.937 141.225 349.843 147.083C352.431 146.675 352.567 147.356 354.61 145.04C358.014 147.083 361.828 145.721 364.551 145.312C366.594 144.904 369.046 142.588 371.906 145.176C370.544 146.947 379.26 155.53 373.267 151.034C375.855 152.124 375.583 156.484 378.443 155.121C380.758 158.936 381.439 157.983 382.801 159.754C385.252 162.478 386.341 161.933 387.839 157.846C391.789 156.756 391.108 152.26 395.057 150.626C393.832 148.855 388.248 149.808 392.197 146.538C393.696 145.994 389.474 139.727 395.466 141.089C398.326 142.179 399.279 139.999 396.147 139.045C393.015 136.866 393.968 133.868 394.376 133.596C391.38 129.372 398.598 128.691 401.322 127.193C404.454 129.236 402.956 124.74 406.633 124.195C408.949 124.74 412.353 129.645 412.489 124.195C412.217 121.062 411.672 117.656 413.579 115.476C413.307 110.299 410.583 113.705 412.217 108.664C416.439 110.163 415.349 105.939 418.209 104.577C420.797 102.806 422.159 100.626 420.252 98.719C420.116 96.13 424.065 91.9068 420.524 89.8632C421.478 86.4572 421.069 86.8659 417.528 85.6398Z" fill="white"/>
<path d="M292.509 156.075C295.505 156.075 295.641 159.618 296.458 160.98C298.365 162.887 295.777 167.928 298.637 169.291C295.096 172.697 299.454 175.285 301.497 178.01C303.54 177.601 302.314 181.416 305.583 181.28C305.719 185.367 308.715 191.225 313.481 189.318C312.392 192.724 317.158 192.315 315.252 196.402C312.937 201.307 319.882 200.081 322.061 199.399C325.602 199.127 326.828 195.04 328.871 199.127C331.322 197.22 338.676 200.081 335.952 198.991C334.59 203.895 342.898 201.988 340.174 207.029C339.357 207.846 334.454 212.342 340.855 210.98C343.987 208.119 350.116 214.249 352.159 208.527C355.155 206.348 352.431 212.342 356.108 210.162C358.287 207.982 361.828 208.119 363.871 210.298C364.96 211.388 365.505 212.887 365.369 214.522C370.272 217.11 369.182 223.514 363.735 225.285C362.645 228.282 364.415 229.236 364.007 232.233C362.917 235.911 354.201 232.642 355.972 238.636C359.104 239.726 360.875 243.132 360.058 246.265C364.552 250.216 350.797 247.355 357.878 253.077C363.054 257.301 353.384 263.295 359.104 266.293C363.19 269.562 363.326 275.421 364.416 280.325C363.054 283.322 368.365 284.412 365.914 288.091C366.458 291.224 365.369 294.767 365.641 298.172C363.054 301.033 357.606 298.854 355.7 304.303C349.707 305.393 350.661 303.758 349.163 304.167C348.482 306.211 344.668 307.709 345.213 308.799C340.583 308.39 346.711 318.881 343.851 314.249C346.166 318.881 339.221 318.063 336.497 318.2C331.186 317.927 331.05 323.922 328.19 324.875C323.423 324.875 319.61 326.51 315.252 324.058C311.847 323.649 308.987 325.693 306.263 322.968C303.131 322.968 305.31 330.052 301.225 325.693C298.773 330.189 299.182 322.695 296.049 326.374C294.551 322.832 291.283 328.145 289.24 330.052C288.014 326.646 284.61 325.965 283.112 328.417C279.843 328.417 277.664 328.417 279.979 324.875C275.213 324.33 278.754 317.518 272.761 317.246C270.719 315.611 266.497 315.066 265.135 311.524C268.267 307.028 264.726 303.622 261.322 300.352C261.458 295.039 255.057 295.175 255.738 288.636C254.512 287.001 247.703 283.322 249.746 288.091C251.244 289.317 244.026 288.772 242.528 290.407C238.987 290.134 236.127 290.543 237.625 286.32C238.442 281.551 234.357 281.551 231.497 281.824C235.582 278.827 220.602 273.105 228.228 277.464C224.142 277.328 227.275 270.652 227.275 267.11C231.224 262.614 231.224 259.481 232.858 253.895C234.493 251.306 231.769 249.399 234.22 246.947C234.357 242.451 242.664 252.396 241.847 246.129C238.578 241.225 244.434 247.083 245.388 243.268C248.929 242.315 253.695 240.543 250.971 237.955C253.423 235.366 256.01 235.23 257.508 232.097C260.913 230.462 257.508 227.192 259.687 225.285C261.322 228.282 261.594 219.018 262.411 220.789C263.909 214.794 257.781 218.882 262.139 214.386C261.322 210.98 266.361 206.892 265.816 208.8C263.228 207.165 259.279 206.756 261.594 203.623C260.368 200.489 259.415 194.767 259.551 196.811C262.82 195.585 268.812 193.269 268.403 188.636C265.543 187.138 270.038 183.187 266.905 182.097C264.318 179.1 260.368 177.601 261.594 173.242C263.909 171.334 272.08 169.836 268.812 170.244C274.259 166.43 274.532 174.059 275.349 166.021C278.481 168.473 281.341 167.519 285.154 167.656C288.559 166.021 285.154 161.661 289.649 160.708C294.551 160.571 291.01 157.029 292.509 156.075Z" fill="white"/>
<path d="M108.656 256.483C109.745 251.442 116.146 258.936 116.146 251.851C118.325 252.669 123.092 254.848 122.002 252.941C123.909 249.944 124.862 251.442 125.271 248.036C125.134 243.541 127.858 240.952 131.944 239.726C133.033 242.451 137.8 236.32 140.932 239.181C144.064 239.045 147.197 238.364 148.15 234.821C150.465 233.05 155.232 233.186 154.687 230.053C159.181 228.827 162.314 236.047 165.446 232.641C166.808 228.554 168.442 225.557 169.94 221.061C171.302 218.745 177.703 221.334 175.251 216.565C174.434 210.298 169.94 202.396 174.162 196.538C173.345 192.86 172.936 188.909 173.209 185.094C169.804 184.822 165.173 180.735 163.675 185.23C160.543 187.955 157.819 189.318 154.278 186.457C151.146 183.323 152.644 174.195 146.38 177.873C136.438 181.688 134.94 164.25 129.22 177.056C133.714 181.416 131.671 188.5 128.675 177.873C122.274 172.56 122.547 184.413 118.734 177.329C116.282 174.468 111.652 172.696 104.434 179.1C97.08 190.816 94.901 179.1 88.772 173.378C85.095 161.389 82.099 158.664 79.648 163.568C73.383 161.661 75.835 161.934 65.893 163.841C60.99 162.479 55.2702 164.795 56.2236 170.925C56.9045 177.465 43.4219 166.021 43.4219 173.786C42.4686 181.961 37.9745 164.795 33.8888 173.514C25.99 174.876 22.9938 174.604 17.5463 176.375C7.7409 176.102 12.3712 181.824 5.2895 181.007C-0.430398 182.369 -2.4732 196.402 4.0638 196.811C14.414 194.903 25.8538 187.546 17.0016 196.811C23.9472 195.04 20.951 196.266 25.7176 198.309C29.9394 200.353 12.0989 192.315 11.6903 197.356C5.8342 196.129 11.0094 212.614 14.2778 203.35C27.2156 204.849 24.6281 216.02 11.6903 213.841C-4.9246 216.293 11.0094 217.519 16.8654 222.015C15.5035 235.775 28.0328 223.786 29.1223 228.827C29.9394 222.56 41.1068 225.693 37.5659 228.691C39.8811 225.148 46.0095 237.137 53.2274 234.14C59.9006 242.723 71.885 234.413 67.527 237.955C66.029 240.816 75.835 245.584 74.881 237.137C80.193 237.819 72.43 246.947 77.196 254.712C76.788 249.808 88.909 251.17 84.823 248.036C85.368 242.042 84.959 249.126 93.811 244.903C94.765 245.312 102.527 244.767 94.084 250.353C86.866 246.81 87.955 255.257 97.352 253.214C103.889 249.399 101.029 252.669 113.15 253.35C110.154 253.077 103.753 253.758 108.656 256.483Z" fill="white"/>
<path d="M190.096 398.989C193.5 401.85 197.995 395.447 197.314 401.169C201.536 400.76 206.438 402.804 204.395 407.708C205.213 411.795 210.388 409.071 212.158 413.975C215.563 417.381 218.287 411.25 220.738 414.52C222.508 411.932 222.236 407.981 226.322 406.073C228.909 407.027 230.952 407.163 231.633 403.621C234.221 402.531 237.217 400.76 234.765 397.082C234.765 393.676 237.625 391.768 238.306 390.406C241.302 389.316 243.754 387.409 245.66 384.956C248.248 383.185 245.115 376.782 249.882 378.281C250.699 373.649 256.147 371.06 256.964 366.837C260.913 369.289 261.594 361.66 260.913 358.799C265.135 360.433 269.221 355.529 264.863 352.532C262.547 354.03 260.232 349.534 262.003 347.218C261.458 345.038 263.092 342.45 260.368 340.134C262.275 337.273 265.544 333.322 269.902 334.548C269.902 331.687 272.081 329.371 274.941 329.371C275.213 329.371 275.621 329.371 275.894 329.371C277.8 327.464 281.069 325.42 276.711 323.921C276.711 320.515 275.213 317.246 270.583 317.791C268.812 315.611 262.82 313.431 265.271 308.526C267.586 304.712 259.824 302.396 260.232 298.172C258.053 295.72 254.921 292.995 255.193 288.499C253.151 288.908 250.699 284.276 250.427 287.409C254.512 291.36 244.571 288.363 243.345 291.36C239.804 290.952 235.31 291.224 237.217 286.592C236.672 283.459 235.174 280.189 234.221 282.505C229.318 285.638 227.82 281.687 230.407 279.78C228.501 277.464 226.185 279.644 225.505 275.693C220.602 274.331 223.734 282.914 218.968 280.461C219.512 284.957 212.158 282.096 215.835 279.916C212.158 280.325 206.574 279.235 203.987 282.232C200.446 283.322 198.403 278.826 197.995 284.548C194.726 287.954 190.368 287.818 186.555 286.456C183.423 288.091 180.971 289.044 185.465 291.36C183.286 295.448 189.96 297.219 190.641 299.535C188.053 302.804 193.909 305.121 192.956 307.982C194.181 311.251 194.999 314.521 195.407 318.063C191.321 318.744 197.314 323.377 193.773 325.42C193.092 327.464 197.995 324.603 198.267 328.009C195.816 330.188 193.637 333.186 189.96 332.641C187.781 335.638 184.376 328.69 182.878 332.505C177.43 334.684 180.835 327.872 175.796 330.188C170.076 332.368 171.03 337.409 166.944 341.632C171.438 338.499 181.652 384.82 172.255 357.709C165.037 364.248 182.742 378.962 168.442 367.79C157.683 376.51 185.329 381.414 188.053 393.131L189.551 398.308L190.096 398.989Z" fill="white"/>
<path d="M209.298 567.653C208.073 563.702 210.932 556.754 210.524 559.206C209.162 554.71 214.201 553.893 214.065 551.713C214.065 548.716 217.061 546.263 218.695 544.356C220.057 543.13 220.738 541.086 222.372 538.361C219.24 536.454 223.189 533.593 224.415 533.184C221.827 531.822 224.551 523.784 221.555 529.233C217.878 524.193 222.645 525.964 221.146 522.285C221.146 519.833 218.014 520.242 218.423 517.653C215.018 517.381 211.886 517.926 210.66 515.337C209.162 512.749 212.839 511.659 211.75 508.389C215.971 506.89 210.66 502.394 214.065 500.351C214.746 497.626 212.975 497.354 212.294 495.446C215.699 491.904 219.24 494.084 222.1 489.86C225.368 491.359 222.917 497.081 226.594 494.629C223.325 491.087 230.271 486.999 230.816 490.405C231.905 484.002 236.672 490.95 238.715 488.226C243.073 488.362 245.252 483.73 249.746 484.683C252.47 480.46 254.512 490.814 256.691 484.82C258.053 484.002 259.143 481.141 260.368 480.324C259.551 477.871 267.586 481.55 263.909 478.008C261.73 475.147 266.769 467.79 267.314 470.923C265.271 469.016 262.956 468.471 264.863 465.201C264.863 460.297 268.676 466.155 271.127 464.248C275.485 463.43 269.902 458.934 270.582 456.073C267.042 451.577 272.217 451.577 274.668 449.942C275.621 447.626 276.711 445.31 277.937 443.131C282.703 441.904 285.291 439.18 284.065 435.229C287.606 434.275 287.742 430.869 290.602 429.643C288.559 427.463 291.011 425.011 289.104 421.469C291.964 419.97 285.972 414.52 288.832 413.431C286.244 413.022 279.979 412.341 283.52 409.207C276.983 408.798 283.248 405.801 282.567 404.984C278.209 402.123 283.52 398.853 285.154 396.128C280.116 395.719 284.065 392.858 282.839 392.45C280.116 391.905 277.664 390.679 275.621 388.908C278.481 386.319 271.263 387 273.851 385.91C271.672 382.096 270.038 379.643 265.135 381.414C264.182 378.008 262.411 386.591 260.913 381.959C256.01 382.096 261.73 373.376 255.329 375.692C251.244 371.878 251.652 381.278 248.248 378.826C247.158 381.414 248.384 385.093 244.979 386.591C244.162 390.27 240.349 389.044 238.715 391.905C237.761 391.224 234.22 396.946 236.672 400.352C235.31 403.485 231.769 403.894 230.407 407.436C227.82 406.074 223.462 407.572 223.734 410.433C221.419 417.245 218.15 416.155 217.197 415.61C213.248 416.7 210.932 411.659 208.481 412.068C206.438 411.114 203.715 411.251 203.987 406.346C205.485 401.441 199.493 402.804 196.633 401.305C197.586 396.809 193.228 402.804 190.232 399.807C192.547 420.242 198.539 418.063 197.314 424.738C189.823 413.158 183.15 386.728 171.71 385.638C168.851 398.444 164.084 441.359 165.446 442.858C176.477 433.185 173.345 447.218 165.174 451.169C159.726 476.237 164.22 510.841 144.609 529.506C133.442 540.405 162.586 532.231 158.637 544.356C153.053 560.705 163.948 542.994 169.259 553.893C178.384 560.16 189.279 556.754 194.045 565.882C197.586 572.694 203.442 569.56 209.298 567.653Z" fill="white"/>
<path d="M475.953 110.163C473.91 112.07 471.731 115.067 468.871 115.067C467.237 113.024 463.832 113.705 462.47 112.479C462.607 115.749 459.066 118.337 462.607 121.062C462.879 125.149 461.653 126.375 458.793 129.236C461.926 132.915 457.568 133.596 456.07 135.776C458.385 138.773 453.21 139.454 456.342 142.86C458.93 146.266 455.525 149.4 459.066 150.353C457.023 152.533 460.972 155.53 455.933 156.893C450.895 157.438 456.342 163.023 452.529 164.386C454.027 166.293 459.883 170.108 457.295 172.833C457.704 175.149 456.614 179.1 460.019 176.511C460.155 179.236 463.151 179.1 464.377 180.871C467.373 184.14 472.004 183.732 474.727 187.001C476.498 187.955 477.996 189.454 478.813 191.225C476.225 191.225 476.225 197.901 478.813 195.176C482.899 192.996 482.354 201.852 485.758 199.263C487.393 201.579 489.163 203.759 491.342 205.53C490.116 207.165 489.027 209.072 488.074 210.98C487.665 213.296 486.303 213.023 489.98 214.385C492.976 215.884 494.747 218.881 494.474 222.287C497.198 218.064 498.424 226.783 499.786 220.925C503.871 218.2 499.65 225.83 502.373 221.742C504.961 221.334 505.914 217.11 509.455 217.383C512.587 218.745 510.408 223.513 514.63 223.377C518.443 220.244 525.116 221.197 526.07 226.511C529.066 225.693 532.334 219.699 533.969 225.421C538.599 227.192 542.14 233.868 546.089 228.963C545.408 225.421 546.226 221.742 548.132 218.745C550.583 217.383 553.035 212.614 553.171 210.707C552.899 206.347 558.482 201.034 558.619 197.628C557.938 196.811 551.537 196.674 554.805 193.268C553.171 190.952 556.303 187.274 554.261 184.958C557.938 185.775 549.494 183.732 554.533 183.051C559.299 184.822 563.794 177.465 562.84 174.876C558.755 172.424 567.335 166.293 561.342 164.795C559.572 163.841 557.801 160.98 556.44 164.522C555.486 167.519 552.626 165.476 552.626 164.658C549.766 161.661 557.665 161.525 552.354 160.98C547.996 159.754 545.953 156.62 549.358 154.849C553.035 154.577 551.537 147.765 554.669 146.266C556.167 148.037 556.031 151.443 559.708 151.988C563.657 153.214 566.109 156.348 571.148 153.623C573.735 155.667 577.412 156.62 577.412 152.124C582.451 143.269 573.599 148.446 573.463 141.77C566.926 141.089 547.587 145.04 552.899 144.495C548.949 128.283 537.918 149.127 535.467 135.367C530.019 127.056 527.159 119.836 515.447 118.201C505.914 122.016 500.194 121.334 492.023 114.931C484.397 115.34 479.221 121.607 475.953 110.163Z" fill="white"/>
<path d="M306.944 323.785C310.758 327.055 316.614 323.104 321.108 326.783C323.968 326.101 330.096 323.785 330.233 328.554C333.773 328.418 328.598 332.505 333.637 333.186C336.361 332.096 335.68 335.366 338.949 335.366C340.447 339.998 343.579 343.131 342.217 348.308C343.851 351.442 346.711 356.21 342.489 357.709C342.489 362.477 337.587 361.524 336.633 364.793C332.003 365.066 337.723 370.788 339.493 371.878C341.672 374.33 341.264 378.008 338.949 378.826C336.497 382.641 342.217 384.276 340.447 388.226C337.587 391.087 336.225 395.72 339.493 395.583C337.178 395.311 331.458 390.406 333.501 396.265C333.092 400.624 327.917 401.987 326.011 406.21C325.602 409.48 323.696 416.564 325.194 413.703C325.33 416.564 318.248 416.155 322.061 420.379C324.785 424.057 315.797 421.06 314.435 424.194C312.528 419.834 307.762 428.962 305.719 425.147C303.267 422.15 299.59 417.518 295.641 418.335C292.645 418.199 290.057 422.15 289.376 416.564C289.512 413.839 289.785 411.251 285.699 411.796C280.252 412.749 286.925 406.891 281.205 407.709C283.112 405.665 284.474 404.03 281.205 402.94C280.66 399.398 288.151 397.354 283.929 394.63C281.205 395.447 286.38 390.951 281.614 391.496C280.388 388.908 273.034 390.27 278.345 386.047C276.03 383.322 271.808 385.774 272.08 380.869C269.629 378.826 265.543 381.278 263.773 379.371C262.547 384.548 257.781 379.507 259.824 376.101C258.598 373.24 251.244 375.965 254.648 372.014C257.645 371.333 256.419 366.019 259.279 368.472C261.322 367.382 263.228 361.796 261.866 359.071C268.812 362.75 269.084 350.488 263.909 351.987C261.185 350.897 262.684 346.81 262.684 345.584C264.999 342.586 258.189 339.18 263.637 338.227C263.501 333.867 270.038 337.001 270.991 334.14C271.263 330.734 279.435 331.96 276.575 330.597C277.937 326.238 280.388 330.734 283.112 329.235C285.563 327.873 287.742 326.783 289.24 330.87C292.509 331.006 294.415 322.968 296.458 327.736C299.318 324.194 303.948 326.374 301.088 327.873C304.902 328.826 305.038 327.328 306.944 323.922V323.785Z" fill="white"/>
<path d="M381.439 192.587C383.209 196.538 386.341 192.587 388.793 196.674C389.201 199.263 393.968 200.625 391.653 203.759C389.337 206.892 396.011 209.481 393.832 207.846C395.194 213.159 399.415 204.576 398.053 210.435C402.139 210.571 400.505 216.702 403.91 218.2C400.369 222.56 407.45 217.383 405.68 221.742C404.046 226.511 411.127 222.832 413.17 224.058C417.937 224.331 416.711 221.47 420.116 223.105C419.026 217.655 423.657 228.963 424.882 222.56C428.287 221.197 433.598 222.969 437.003 220.789C434.415 215.884 442.859 217.791 445.583 219.018C448.715 218.881 446.128 222.969 450.486 222.832C446.264 228.146 453.482 229.78 453.209 226.375C455.252 229.236 457.976 232.233 453.209 234.14C454.026 235.911 456.205 236.592 454.98 239.59C458.112 240.543 458.384 238.909 460.291 241.906C462.742 245.584 465.602 239.045 465.466 242.996C469.279 243.813 468.326 251.034 472.276 245.857C473.774 246.947 476.497 247.355 477.587 244.358C479.902 245.857 480.447 248.99 478.949 251.306C478.132 252.532 476.77 253.35 475.136 253.486C473.91 256.075 475.136 255.938 477.042 256.892C475.953 260.434 480.038 262.478 479.766 261.388C479.085 263.159 479.221 265.203 480.447 266.701C478.949 268.472 478.949 272.151 478.268 273.786C477.042 276.919 476.089 281.006 472.139 281.279C469.143 282.641 469.552 286.456 470.233 286.183C467.509 288.772 469.416 292.042 471.322 291.633C472.003 296.129 476.089 292.723 477.587 296.538C480.992 298.581 468.19 296.946 473.91 301.033C475.953 302.805 472.82 304.984 476.089 306.892C475.544 309.072 478.676 311.251 475.816 313.159C474.591 313.976 471.731 319.834 476.77 320.652C475.136 323.922 467.373 324.739 466.964 319.426C463.696 318.608 460.019 322.695 456.75 318.881C452.12 318.2 453.073 325.693 450.622 329.099C449.668 333.322 448.443 338.635 446.264 341.905C444.221 340.815 445.719 336.592 443.404 336.183C446.809 333.867 439.046 331.006 439.454 335.638C436.322 333.595 428.151 331.278 433.326 334.276C427.198 330.189 430.057 341.633 426.244 341.224C424.201 342.314 422.976 344.221 422.703 341.088C419.843 340.679 418.209 342.859 415.213 340.406C412.625 341.769 410.31 343.131 408.948 339.862C404.999 341.224 406.088 334.412 407.723 334.276C410.855 332.505 411.264 331.415 410.038 327.191C412.762 323.922 409.221 318.336 405.544 321.061C404.454 317.382 401.05 318.881 398.598 316.701C399.96 311.251 394.104 307.709 393.151 302.805C390.563 301.578 389.746 309.344 389.61 307.3C387.431 306.619 384.707 312.478 384.843 306.892C382.8 302.805 379.396 310.025 377.081 305.257C373.812 308.799 371.769 306.347 368.773 304.031C362.236 301.715 369.999 296.401 366.73 292.587C368.501 288.772 368.365 283.867 365.368 281.143C366.594 276.783 363.462 272.151 362.917 267.927C358.968 265.339 357.197 262.75 360.602 258.527C363.189 254.303 353.929 249.671 360.193 248.718C366.322 250.216 359.376 244.631 361.964 242.451C360.466 240.543 358.695 237.955 357.47 237.41C357.333 233.323 367.82 236.184 364.96 230.598C366.594 228.554 362.917 225.966 366.73 224.331C371.769 221.606 370.68 216.02 366.594 213.841C366.73 209.753 363.598 208.936 361.147 207.165C364.688 205.257 367.411 201.852 365.096 198.309C366.049 194.222 369.182 195.312 372.178 194.358C375.31 195.176 377.898 193.95 381.166 194.086C380.213 192.86 381.166 192.996 381.439 192.587Z" fill="white"/>
<path d="M171.03 333.049C173.073 331.415 177.158 328.69 180.699 329.235C178.248 334.821 184.104 331.006 186.419 330.733C186.691 332.232 188.053 333.186 189.551 332.913C190.232 332.777 190.913 332.368 191.322 331.823C196.633 332.641 193.637 329.098 197.314 329.371C198.54 324.739 192.139 330.461 193.501 324.875C196.361 322.832 190.913 318.472 194.999 317.518C194.045 314.793 193.909 311.796 192.82 310.434C193.501 306.483 188.462 304.712 189.824 299.943C189.96 298.445 182.469 295.72 185.057 292.314C182.469 290.679 179.746 288.091 183.695 287.409C188.053 284.548 195.407 289.453 197.314 283.867C197.45 279.508 202.625 281.279 204.532 281.687C206.711 278.418 212.975 279.916 216.244 279.508C217.606 280.189 214.474 283.459 218.287 281.824C218.287 277.873 222.917 281.96 221.555 278.009C223.462 273.104 227.003 276.647 226.594 271.061C225.777 266.02 232.042 263.023 230.544 259.344C232.042 256.483 233.948 252.26 232.45 249.808C233.948 246.402 234.085 243.132 238.715 246.265C244.571 250.897 238.034 243.268 241.983 243.132C243.89 245.857 246.341 241.769 249.201 241.497C252.47 241.088 249.201 237.819 252.47 235.775C256.011 234.821 256.964 232.233 259.279 229.508C256.964 227.328 259.552 224.331 261.05 225.421C263.092 222.56 261.186 221.334 262.411 217.928C257.645 216.02 259.552 210.707 261.594 212.342C264.182 209.753 267.45 209.481 261.867 207.846C259.143 207.301 255.738 206.62 255.057 202.396C252.742 201.988 253.695 204.576 250.155 203.078C246.341 202.26 247.295 198.309 243.209 198.446C238.715 196.674 243.345 186.865 235.991 187.001C231.497 188.091 229.863 190.135 226.458 192.724C225.641 195.04 222.1 192.179 220.602 193.541C221.828 187.819 219.376 190.135 216.108 188.091C215.427 184.822 215.972 181.416 212.158 181.552C213.248 185.639 206.711 187.41 207.937 185.367C206.03 187.41 202.08 182.914 199.493 185.639C197.314 187.274 192.411 190.68 192.003 186.865C188.189 188.091 186.964 189.999 188.053 189.726C185.874 187.819 185.329 188.228 183.287 185.503C179.746 185.503 179.337 184.14 176.205 185.912C172.119 182.233 174.979 189.045 173.617 190.816C177.567 195.721 171.03 200.353 173.753 205.257C173.345 210.435 178.111 215.612 175.524 219.835C171.302 219.835 169.395 222.015 168.851 226.238C167.625 228.554 166.672 231.824 165.174 234.276C160.816 234.685 158.364 229.644 155.232 230.734C155.368 234.958 146.788 232.914 146.925 238.091C142.567 241.088 136.438 237.274 131.944 241.497C130.582 240.68 125.679 242.587 126.496 245.993C126.224 252.124 123.773 249.535 123.5 252.805C121.594 253.486 115.465 253.758 118.053 252.941C116.419 251.034 115.193 258.118 111.243 255.802C107.839 256.347 114.376 261.115 105.115 260.843C112.061 267.791 101.166 266.429 114.648 269.29C119.278 261.388 146.244 269.835 138.889 271.742C133.17 263.704 120.777 267.246 120.096 276.51C136.847 279.235 121.457 291.497 127.45 300.897C139.298 308.799 136.302 320.515 145.563 323.649C152.781 327.055 159.726 331.006 166.263 335.502C167.625 334.957 167.353 330.052 171.302 332.777L171.03 333.049Z" fill="white"/>
<path d="M303.676 136.048C303.403 137.547 304.493 141.225 307.625 139.59C311.439 141.906 316.614 140.272 320.972 138.092C322.197 139.454 323.968 140.135 325.738 140.408C327.1 139.999 328.598 143.814 330.913 140.408C332.275 138.909 338.948 141.634 337.042 142.588C341.4 144.495 347.8 149.945 343.715 145.721C345.213 147.084 348.618 143.678 349.707 147.765C352.431 147.765 359.649 147.492 356.244 146.402C358.423 148.173 361.692 145.449 363.598 146.947C366.867 145.312 371.225 145.312 369.046 144.904C372.859 145.04 371.225 149.263 371.633 151.307C374.902 152.533 375.583 156.757 378.034 156.893C380.758 157.983 385.524 163.16 382.937 161.389C384.299 162.615 388.52 163.023 384.162 164.113C381.303 164.522 385.524 165.885 382.12 168.201C385.388 168.746 386.341 171.879 384.162 174.74C384.98 178.146 390.972 174.876 387.295 179.1C384.707 184.14 381.575 180.871 383.345 184.958C381.575 186.457 381.303 193.132 381.847 190.544C384.707 192.724 380.622 192.042 379.124 193.813C374.902 193.95 370.816 193.813 366.731 194.903C363.326 195.993 364.96 201.034 364.96 202.396C362.781 206.484 358.559 208.663 354.746 209.89C356.516 206.075 349.707 208.255 350.524 209.89C347.256 210.571 341.536 209.345 338.948 210.298C341.127 208.8 343.034 205.666 340.583 202.941C337.723 202.396 336.906 200.898 336.225 197.628C333.365 198.173 331.049 195.585 329.143 198.173C327.1 193.132 324.513 200.489 321.516 198.582C318.656 200.353 314.707 200.08 316.205 196.402C318.248 193.677 314.843 191.77 314.707 190.952C315.388 186.048 310.758 191.77 309.396 187.546C305.582 186.865 309.26 179.372 303.812 179.917C305.582 176.647 300.544 178.418 300.544 175.149C297.956 174.059 298.228 171.334 300.135 169.018C295.641 167.383 300.816 161.934 296.594 160.571C298.092 157.438 292.645 155.939 294.824 153.078C291.828 153.895 294.007 150.353 291.964 148.446C294.143 148.173 299.182 147.901 300.135 145.176C302.995 142.86 300.952 138.773 303.812 136.593L303.676 136.048Z" fill="white"/>
<path d="M362.1 300.216C365.641 300.488 366.731 305.257 370.408 306.483C372.723 312.614 376.809 302.396 378.443 307.982C381.575 308.527 384.571 304.031 384.163 309.616C386.478 311.66 388.521 308.118 390.155 307.3C390.291 305.393 392.47 300.488 393.287 306.619C396.147 309.753 397.918 313.704 398.19 317.927C400.914 319.426 403.501 317.927 403.91 321.333C407.315 320.788 411.128 322.287 409.357 326.51C409.221 330.597 410.038 333.186 405.408 334.139C404.318 337.545 396.828 335.774 400.097 340.815C400.914 344.902 401.322 348.989 401.458 353.077C402.957 357.436 393.696 353.622 396.011 359.207C400.641 361.115 395.602 363.567 396.692 367.382C394.649 370.106 400.778 371.605 399.688 375.284C401.458 381.006 408.813 381.278 408.54 388.09C410.992 391.768 402.957 392.858 405.272 397.763C406.089 402.531 409.357 392.722 410.719 399.125C411.809 398.308 416.303 395.992 414.941 397.899C417.937 397.899 417.801 394.629 421.614 396.128C422.568 399.398 429.241 395.447 425.564 400.488C427.198 403.621 434.007 404.847 431.011 404.575C435.233 406.346 429.649 412.068 430.875 413.022C426.245 409.479 423.929 415.61 426.926 415.201C426.381 418.744 429.241 419.152 424.066 420.515C426.926 425.964 419.98 421.605 420.116 426.237C418.754 430.596 414.805 429.643 411.4 430.733C411.4 435.365 406.225 431.278 405.953 437.272C403.229 439.588 399.28 435.365 401.186 436.046C399.416 433.594 397.101 431.55 395.194 432.504C395.466 427.599 389.338 429.915 389.883 432.64C386.478 434.956 384.707 433.866 384.163 429.643C383.209 425.828 381.575 420.787 378.034 425.283C375.719 425.556 373.676 425.828 373.812 429.507C371.633 432.64 369.863 424.602 368.093 429.915C368.229 433.321 364.824 434.002 365.233 437.817C364.552 439.724 363.326 444.902 362.1 444.629C358.696 442.177 363.19 435.229 358.696 435.774C358.559 431.005 355.836 428.962 353.112 430.324C354.61 425.964 349.98 424.466 348.345 427.872C344.941 431.005 343.987 434.956 342.217 439.179C340.719 442.313 338.812 447.218 334.318 445.174C332.139 443.948 329.415 443.812 327.1 444.901C324.649 450.351 321.244 440.814 323.695 441.904C322.197 440.542 327.372 435.229 323.423 433.457C320.155 429.915 322.878 427.327 320.155 423.648C324.24 423.648 323.968 420.651 321.789 417.926C326.419 416.155 327.372 411.796 326.419 412.749C330.096 410.433 323.287 407.436 328.19 405.256C329.551 401.305 336.497 399.534 333.501 394.357C335.816 395.719 342.353 399.261 340.855 394.493C338.812 390.815 343.579 384.82 338.676 381.687C339.766 378.826 342.081 378.826 341.536 375.147C341.127 371.196 332.139 367.518 337.45 365.338C337.859 363.158 341.945 363.703 342.762 360.025C342.353 357.709 346.847 357.027 344.941 353.485C345.077 350.624 340.855 348.036 343.443 344.766C341.4 341.496 341.264 335.774 337.042 334.276C336.361 331.415 329.551 329.099 331.458 331.006C335.271 328.554 328.598 328.826 330.096 325.556C331.458 321.469 334.727 319.017 339.629 318.881C342.625 321.333 347.801 315.611 344.396 313.022C344.396 307.3 346.166 306.483 346.166 308.39C349.435 307.845 349.843 302.668 352.703 306.074C357.47 305.802 358.015 301.851 362.1 300.216Z" fill="white"/>
<path d="M556.303 253.077C556.984 250.489 554.805 247.219 552.49 246.538C548.405 248.173 551.809 241.633 551.945 240.407C552.626 234.958 544.046 235.639 542.412 232.097C539.416 228.963 534.241 227.192 531.653 223.377C528.385 228.146 524.98 226.919 522.393 223.105C519.533 219.835 513.813 226.647 512.179 222.56C508.91 222.015 512.315 216.565 507.14 218.473C505.778 219.971 500.603 226.374 500.739 222.015C501.011 219.29 499.105 225.012 498.151 226.238C495.291 225.421 496.517 232.096 492.704 229.099C493.385 232.914 487.937 230.325 489.163 234.413C492.023 235.502 488.618 238.5 489.435 240.68C487.392 241.361 483.307 236.047 483.715 239.453C481.536 243.404 476.225 239.59 475.408 244.086C473.501 247.764 480.311 240.952 480.175 247.628C482.217 250.897 476.906 254.303 476.089 254.167C474.046 256.347 478.949 254.576 477.587 258.118C477.178 261.388 481.673 258.799 480.311 262.614C477.996 265.611 483.443 265.339 480.311 267.655C479.766 272.696 477.859 277.6 474.727 281.551C471.322 281.279 469.552 284.548 472.003 286.047C469.007 286.864 468.326 291.36 471.731 290.815C471.731 295.311 476.498 292.314 477.587 295.856C482.081 298.445 474.182 298.309 472.82 299.398C475.136 301.033 478.949 307.573 475.544 304.984C476.634 308.254 478.404 310.979 476.498 313.431C476.089 315.338 471.867 316.701 475.136 319.017C479.902 321.742 474.182 323.513 471.867 323.921C470.778 327.055 475.953 326.919 474.863 330.188C476.498 331.551 479.766 331.006 479.085 334.412C479.63 337.954 485.214 333.322 486.439 331.142C487.937 331.142 491.478 333.458 491.07 335.91C497.062 337 500.194 333.867 502.646 329.235C511.362 320.924 509.591 309.344 522.665 303.758C522.801 291.497 533.015 286.592 540.369 278.145C548.541 270.243 555.759 261.115 546.089 260.298C550.72 256.483 548.677 251.579 556.303 253.077Z" fill="white"/>
<path d="M580.545 148.582C578.23 151.579 577.14 159.481 572.51 154.44C569.65 153.487 564.611 157.574 563.657 153.623C559.299 153.487 554.669 150.353 554.805 147.083C552.626 148.446 553.443 155.394 550.039 155.394C544.727 159.754 557.393 159.073 554.261 162.206C551.401 162.342 555.078 165.748 554.805 164.931C556.712 163.296 558.074 159.481 560.253 162.887C562.84 163.023 563.657 165.067 565.019 167.656C561.478 171.334 565.019 177.737 564.066 175.694C563.385 180.598 557.801 184.958 554.124 183.868C558.21 184.413 554.805 185.503 555.759 189.181C554.805 191.361 555.35 194.086 555.214 195.312C557.257 196.674 560.934 195.176 559.436 198.854C557.393 201.715 553.988 207.029 554.261 209.753C553.988 213.704 550.175 217.519 547.996 219.971C545.817 223.65 547.587 227.192 545.817 230.189C539.688 232.369 548.949 234.413 550.856 235.775C553.852 238.363 552.082 242.451 550.992 245.039C553.443 245.039 555.486 246.674 556.031 248.99C558.074 253.758 559.163 252.941 558.619 255.802C565.292 261.115 578.093 250.216 573.872 249.808C579.591 244.494 571.42 232.778 577.412 223.513C575.233 210.707 585.039 198.309 587.082 184.958C587.354 170.925 604.378 165.339 606.557 153.35C597.023 149.945 590.486 147.083 580.409 148.173L580.545 148.582Z" fill="white"/>
<path d="M307.625 584.819C311.439 584.546 311.983 582.094 315.524 581.958C315.797 576.917 323.015 580.595 324.785 577.871C322.061 575.146 320.155 572.557 316.341 574.873C311.711 574.465 312.8 570.105 310.213 568.062C311.166 564.656 318.248 566.972 315.797 561.658C310.349 560.296 318.657 558.389 315.524 555.664C316.75 553.484 312.8 552.803 314.707 550.623C314.435 546.672 308.851 544.492 310.077 547.081C307.081 546.944 302.042 544.765 303.54 541.495C301.905 538.498 302.859 534.819 305.583 532.776C309.668 535.228 306.4 528.552 309.532 527.735C311.847 525.555 312.392 529.915 315.524 527.735C318.384 528.825 319.201 525.282 321.38 529.506C324.104 527.054 326.419 524.056 327.1 527.735C329.824 522.285 334.727 530.596 339.085 526.781C345.758 530.051 350.524 522.966 345.622 518.062C344.941 513.838 348.618 508.934 352.295 514.656C355.972 513.021 359.513 512.067 361.692 509.07C364.415 507.98 367.684 510.977 365.914 506.209C366.186 503.62 365.233 496.945 370.816 501.168C377.217 503.62 372.723 493.811 378.715 495.991C380.213 493.675 380.758 490.269 384.163 488.634C384.844 484.819 378.851 487.272 378.851 484.002C373.812 485.092 379.396 476.781 378.987 479.097C383.345 475.419 377.217 475.01 374.357 476.509C373.949 474.601 368.773 469.288 370.68 471.059C367.139 472.558 372.178 466.291 369.182 464.656C369.863 460.841 370.408 457.708 366.731 454.574C369.182 447.762 357.742 445.31 360.194 438.226C358.559 436.863 361.828 435.91 358.287 435.773C357.742 430.188 350.116 429.506 352.567 430.324C353.793 426.373 346.983 430.596 349.026 428.144C346.575 430.733 342.762 439.452 344.26 436.318C342.625 439.452 341.4 445.31 337.178 445.991C333.501 446.4 332.684 443.539 329.415 444.629C327.917 446.128 325.194 449.261 324.513 444.629C323.287 442.177 322.47 441.087 323.423 437.136C327.1 434.138 317.703 430.46 321.244 426.918C320.563 421.605 310.894 424.193 313.618 424.193C312.392 421.877 308.306 428.144 306.536 426.782C302.995 424.466 300.544 417.654 295.096 419.288C293.189 418.88 287.333 421.468 290.738 425.01C291.691 426.782 282.703 441.495 290.33 430.324C287.333 431.277 288.423 434.956 284.473 435.228C286.925 439.452 281.886 442.722 277.392 443.811C277.528 447.217 275.349 450.351 272.08 451.577C261.322 427.463 292.645 536.863 271.536 456.754C271.536 459.343 275.349 462.476 272.217 464.656C268.812 463.566 266.905 467.653 265.816 463.294C265.135 465.61 263.637 468.198 266.769 468.879C269.629 471.196 264.863 476.781 264.045 476.918C267.859 478.007 262.82 482.776 260.777 479.642C261.322 482.095 257.781 481.958 257.917 484.956C255.329 486.318 253.831 489.043 252.061 484.819C250.018 483.457 247.703 486.591 244.979 485.501C242.255 489.043 236.672 490.814 233.267 487.817C230.816 491.359 224.96 489.997 227.683 490.269C224.823 491.086 229.318 497.49 224.415 495.855C222.236 492.585 222.781 489.315 219.104 493.947C216.788 493.402 214.337 494.22 212.839 495.991C216.244 497.081 214.065 499.533 214.201 502.258C211.613 502.939 216.925 507.844 212.158 508.798C212.567 511.114 211.477 512.748 210.66 514.52C212.294 517.244 215.427 516.018 219.104 517.108C219.24 519.697 222.1 520.514 221.964 523.375C224.279 525.01 218.15 527.462 221.419 527.326C225.368 524.056 222.781 532.094 224.823 533.866C222.781 534.819 220.602 536.045 222.917 538.498C220.874 541.904 220.738 545.31 217.878 545.855C216.38 548.852 213.248 550.078 214.882 553.484C211.341 554.301 210.932 557.707 211.069 561.386C205.212 564.792 217.878 571.74 217.197 571.467C224.551 581.685 237.625 573.375 246.205 577.19C261.185 583.184 249.746 564.111 261.866 567.244C272.217 572.421 282.022 573.511 290.057 579.369C291.555 584.955 301.769 576.781 307.625 584.819Z" fill="white"/>
<path d="M532.879 414.248C524.571 414.929 531.653 415.746 524.98 418.471C520.213 417.79 520.622 414.112 515.992 413.703C515.175 416.019 510.953 423.648 518.443 421.06C518.988 424.057 521.984 426.237 520.486 430.052C520.213 433.866 508.365 434.002 511.77 431.959C509.046 431.414 501.964 433.049 504.007 434.139C501.283 434.002 504.552 437.817 501.011 438.09C498.968 439.724 494.202 437.545 495.836 441.496C496.108 445.583 490.933 446.673 487.392 445.447C488.209 449.261 483.17 452.258 488.346 454.847C486.848 456.073 485.213 459.479 482.353 456.891C477.723 454.166 478.54 458.117 480.447 460.297C476.906 460.705 477.995 467.381 477.723 463.839C480.174 466.155 483.579 465.61 486.711 466.836C484.532 470.242 490.661 469.288 488.754 472.694C488.618 476.781 488.754 477.599 487.528 478.28C484.941 478.961 483.988 473.512 484.26 478.825C481.945 481.686 477.859 482.503 476.225 478.961C472.82 479.37 476.089 472.967 471.322 475.283C469.007 472.422 465.466 476.918 463.696 472.831C463.559 470.514 466.283 466.019 461.925 470.514C458.521 467.517 455.388 472.013 451.303 471.877C448.443 476.237 446.808 472.013 447.217 468.88C443.54 465.065 438.092 469.152 442.178 473.376C444.221 475.692 444.766 478.961 443.54 481.822C445.038 483.593 447.898 484.138 448.851 487.681C452.256 490.814 445.991 492.721 444.221 495.855C439.999 498.307 441.633 499.397 440.952 504.029C438.229 507.844 440.544 512.476 434.824 509.615C430.466 508.253 426.925 531.277 431.555 517.517C428.695 519.424 424.065 521.059 421.478 524.329C433.734 521.877 439.318 537.544 447.626 531.277C433.871 509.479 445.174 523.103 450.077 529.37C462.879 533.457 454.163 516.018 462.061 522.694C475.816 525.419 444.493 536.454 468.598 534.002C474.863 536.182 476.633 547.081 488.754 544.628C494.202 547.626 494.202 556.072 499.785 551.168C498.151 545.31 510.136 554.165 510.544 553.893C513.132 546.127 520.35 551.985 526.478 545.991C534.922 547.217 527.159 536.59 532.198 537.272C536.828 528.688 545.953 529.778 549.494 520.378C557.801 519.56 559.844 508.934 566.926 508.525C574.961 506.073 572.373 500.76 577.548 492.449C585.039 489.043 584.222 472.149 575.369 479.37C565.564 484.547 558.074 474.057 549.494 471.877C542.684 461.795 543.638 454.575 548.677 444.084C559.844 440.406 546.498 428.962 538.326 427.191C541.05 418.744 533.56 421.06 532.879 414.248Z" fill="white"/>
<path d="M507.276 325.829C502.373 330.052 500.466 338.499 492.704 336.455C488.89 338.09 490.116 330.597 486.03 332.368C485.486 336.319 476.225 339.044 478.676 332.777C475.544 332.777 476.225 334.412 474.182 330.052C474.863 327.191 469.552 327.327 471.322 324.33C466.147 325.284 466.828 317.11 462.198 321.197C458.657 322.968 453.209 316.292 453.209 323.377C450.349 329.371 449.532 337.137 446.4 342.586C441.361 342.859 446.128 337.273 441.77 336.728C445.038 333.731 439.318 333.049 438.91 336.455C436.186 333.594 435.505 337.954 432.917 335.093C426.517 331.687 430.875 343.404 425.019 342.859C423.248 343.812 421.75 339.725 421.614 341.769C419.571 342.041 419.162 342.041 416.439 342.314C414.396 339.18 409.221 345.992 408.404 340.543C402.411 342.314 408.131 333.186 403.092 336.592C397.645 337.137 402.82 342.722 401.322 346.265C402.411 348.853 402.139 352.395 402.139 354.984C399.143 356.21 393.832 356.21 398.462 359.889C399.007 362.477 397.236 365.474 396.419 368.063C399.688 370.379 400.096 374.194 402.275 378.281C407.178 379.643 408.948 384.957 409.629 388.907C410.31 392.858 403.229 393.267 406.089 398.035C407.178 392.586 410.719 398.444 412.217 396.946C414.941 398.58 416.575 393.54 420.524 394.629C422.976 396.945 424.61 395.038 427.198 397.49C427.198 399.534 429.785 404.302 428.151 403.076C433.054 400.896 434.279 408.662 431.147 411.387C432.509 416.019 429.104 412.068 427.878 412.34C431.419 414.112 423.793 415.883 428.151 417.518C427.742 420.515 422.703 419.425 424.882 423.24C419.98 422.695 420.524 427.191 417.392 429.915C414.124 429.507 411.536 430.324 410.855 432.776C408.676 434.139 406.769 432.504 406.769 436.863C401.594 438.635 406.088 445.038 406.633 449.534C410.31 450.896 408.812 457.572 412.353 459.343C413.306 461.114 412.489 464.384 412.489 466.564C416.847 463.294 418.618 469.288 422.431 469.97C422.295 465.882 430.602 462.068 428.696 468.471C431.692 470.242 429.921 461.659 434.279 465.882C436.458 467.245 441.089 471.877 440.544 465.882C445.447 464.929 448.851 467.653 448.443 472.694C450.349 469.561 453.618 470.923 457.159 468.607C459.746 466.291 461.653 471.741 464.104 467.109C466.283 468.198 462.061 475.964 467.509 472.967C469.96 472.831 472.548 473.375 474.727 474.465C474.591 478.008 477.587 478.553 480.038 480.051C483.443 479.37 482.626 472.558 486.439 476.509C488.754 475.01 487.392 472.558 488.073 470.242C484.26 470.514 486.711 464.792 482.353 466.427C479.902 465.201 475.816 465.065 476.634 460.842C475.135 457.027 481.809 461.386 477.859 456.891C476.906 450.487 485.486 460.024 486.03 454.302C488.209 454.03 481.945 451.032 485.622 448.58C486.984 445.991 485.622 441.904 490.525 444.765C492.84 443.539 495.564 442.449 494.202 439.997C494.066 434.547 500.058 439.043 501.964 435.229C498.968 431.55 509.727 429.643 508.365 431.005C511.361 430.597 521.712 433.594 519.124 430.733C521.167 427.191 517.49 424.602 518.035 421.06C510.544 423.785 513.268 416.291 513.949 413.158C525.252 411.387 511.361 415.201 523.618 416.291C526.206 416.7 527.023 412.204 530.972 412.477C539.416 410.706 545.408 413.022 551.537 405.937C558.074 404.302 560.253 389.452 550.175 386.455C553.035 375.556 533.696 372.695 543.774 363.567C559.435 358.526 541.05 342.586 542.14 344.357C544.455 331.142 537.237 314.93 518.035 326.51C511.906 333.322 519.669 342.995 505.369 343.949C493.248 343.267 520.622 332.641 507.276 325.829Z" fill="white"/>
<path d="M421.206 525.555C420.525 521.876 425.7 520.787 425.972 519.697C427.879 519.56 432.918 516.154 431.556 515.746C428.151 512.885 434.961 505.392 438.774 509.887C439.046 506.618 441.906 500.759 440.544 497.762C444.085 495.446 447.218 492.449 449.669 488.907C447.762 486.727 446.4 483.321 443.949 483.185C442.86 480.051 445.311 475.01 441.77 474.329C441.225 469.969 436.459 468.607 433.19 466.7C433.463 468.743 428.151 472.967 429.105 467.108C426.109 463.702 424.883 471.877 422.023 471.332C418.618 468.471 416.848 466.291 412.762 467.926C412.217 463.975 414.669 460.705 410.447 458.389C410.447 452.258 405.272 450.624 405.272 445.174C404.591 442.177 403.91 438.498 402.548 437.681C399.416 437.272 399.28 431.414 394.785 433.458C396.283 430.324 390.7 428.825 391.789 433.73C388.657 433.73 385.388 437 384.299 431.823C383.209 427.599 382.529 422.422 378.307 426.373C374.493 425.556 376.4 431.686 372.178 431.141C369.046 425.964 369.999 433.866 367.276 434.411C366.458 438.362 365.233 442.177 363.735 445.991C365.914 449.261 369.727 451.305 367.82 455.801C373.949 459.207 368.093 464.656 371.497 468.88C367.548 472.694 375.447 478.416 374.902 474.738C373.132 478.825 383.209 472.013 381.575 478.416C378.307 479.097 380.622 483.593 377.081 483.457C381.439 484.411 378.579 485.501 381.575 485.637C388.248 486.727 383.346 491.768 380.758 493.947C381.711 498.852 373.132 495.582 375.447 501.441C372.587 505.255 365.369 497.626 367.003 504.165C366.731 505.936 368.637 512.612 364.279 509.887C359.921 509.206 359.921 515.064 355.019 514.52C351.75 518.607 347.12 508.797 346.439 516.563C346.303 519.833 349.435 521.604 348.482 524.737C346.984 528.143 342.898 529.642 339.493 528.007C339.357 528.007 339.221 527.871 339.085 527.735C335.544 531.686 329.824 523.784 327.917 528.416C328.054 533.865 324.513 527.598 321.653 530.323C318.929 530.051 319.882 526.781 316.478 529.37C313.618 526.508 312.12 533.865 310.894 527.462C308.034 528.416 309.804 532.503 307.898 534.138C304.085 532.912 302.45 538.634 304.629 541.903C303.131 544.492 308.851 547.353 310.758 545.854C311.983 547.898 317.022 548.034 315.524 552.666C315.252 552.939 318.112 555.391 317.022 557.298C319.882 561.658 311.711 558.661 316.75 561.658C319.61 567.38 311.983 565.2 311.166 568.743C315.388 569.969 312.664 575.282 317.839 574.056C321.108 571.331 324.376 576.099 325.738 578.552C323.696 581.685 316.75 577.734 316.069 582.775C312.528 583.32 311.439 585.636 307.353 585.772C306.944 592.448 321.244 604.028 329.143 595.718C338.268 595.718 348.754 607.843 352.431 596.263C357.606 588.088 376.945 599.669 371.497 590.813C364.688 580.323 368.365 574.328 365.505 566.154C367.82 558.525 369.182 559.342 369.455 548.715C370.408 551.576 386.342 535.364 392.879 531.277C403.501 526.1 414.396 513.566 396.964 527.326C398.599 522.149 421.887 512.476 410.175 518.47C414.124 511.658 416.575 524.874 421.206 525.555Z" fill="white"/>
<path d="M317.975 590.95C321.516 595.854 314.162 594.083 317.975 590.95V590.95Z" fill="white"/>
<path d="M421.75 86.7298C420.116 89.9996 424.746 92.3156 421.205 95.5851C419.707 99.1271 423.521 99.8091 420.797 102.942C416.847 104.577 417.256 110.572 412.626 109.482C412.762 110.708 412.762 115.885 413.851 114.659C415.077 117.247 411.128 118.882 413.443 121.879C412.626 122.833 413.17 130.735 409.629 126.375C408.54 125.013 406.497 124.74 405.135 125.83C404.318 126.511 403.773 127.465 403.91 128.555C400.505 127.056 396.828 129.509 394.24 131.28C396.828 133.323 393.423 137.819 396.964 137.683C398.734 138.909 400.505 142.451 396.283 141.77C391.244 140.68 393.696 144.495 393.832 146.947C387.703 148.855 399.007 147.765 395.057 151.579C392.061 153.351 392.47 157.165 388.657 158.119C386.205 160.435 387.976 165.203 384.98 164.931C383.618 167.792 383.073 167.656 386.205 169.29C386.886 172.833 383.073 176.784 388.793 175.149C392.47 178.282 385.116 179.1 386.478 182.914C380.622 184.958 386.341 184.958 382.801 187.274C382.801 190.135 384.026 191.225 384.162 194.222C388.929 191.634 390.972 199.399 393.559 201.443C393.015 205.53 391.108 205.121 394.649 207.301C395.602 211.661 400.233 203.486 399.007 209.89C403.637 210.298 402.003 218.336 406.633 219.426C406.906 222.969 405.68 223.922 410.038 223.377C412.217 223.105 418.209 224.467 416.303 223.377C418.345 219.835 420.388 224.195 419.98 220.652C422.159 220.652 423.793 226.647 425.155 221.47C428.151 220.925 436.05 222.151 435.914 219.971C435.777 215.475 442.995 216.838 445.855 218.473C450.486 217.519 445.992 222.696 451.031 222.015C449.396 227.873 451.848 221.606 453.89 225.83C455.661 228.418 459.883 232.641 454.163 234.276C456.478 234.413 456.069 238.091 456.342 239.726C460.291 236.047 459.202 242.587 463.56 242.314C464.241 237.137 471.186 246.674 469.007 246.129C469.688 247.628 473.365 243.813 474.319 245.584C474.999 241.497 477.996 239.317 481.945 240.816C484.26 235.366 485.35 243.404 488.754 240.135C489.708 239.59 489.027 236.592 490.116 235.094C486.848 234.413 489.844 229.917 492.023 230.598C492.023 226.511 496.926 230.87 496.653 225.557C501.011 225.83 496.245 220.516 494.066 222.696C494.883 218.609 491.342 215.067 488.346 214.385C484.669 212.887 489.98 210.298 488.891 206.892C494.883 205.394 485.35 204.031 487.529 201.307C483.852 202.124 476.225 195.857 479.63 195.857C475.544 199.399 477.315 192.724 476.089 192.315C480.447 190.952 475.408 187.546 473.365 186.593C471.322 184.277 466.556 184.004 464.377 181.688C461.789 179.645 460.427 177.056 457.704 178.282C455.116 174.059 459.746 170.653 454.708 167.383C454.027 165.476 449.941 165.748 452.665 163.023C455.525 162.07 450.622 156.756 455.525 156.212C460.836 155.803 461.245 150.762 458.521 151.579C455.116 149.945 456.614 150.081 456.887 144.631C455.116 141.906 453.618 138.228 456.069 137.002C453.209 133.187 462.743 133.732 458.385 129.1C460.019 125.83 462.334 120.244 462.334 123.242C462.606 120.244 458.385 117.928 461.517 115.612C461.789 113.024 463.424 109.618 465.739 113.024C469.143 112.07 471.186 116.975 473.093 111.389C478.677 110.572 475.136 105.531 472.684 107.711C466.42 101.716 453.754 100.626 450.486 93.8143C449.532 87.1386 448.851 81.2803 452.12 74.6046C442.314 70.245 443.676 91.6344 430.739 88.0922C427.606 87.6835 424.882 85.7762 421.75 86.7298Z" fill="white"/>
</g>
<path d="M344.5 148.75C338.435 148.75 333.5 153.685 333.5 159.743C333.46 168.605 344.082 175.953 344.5 176.25C344.5 176.25 355.54 168.605 355.5 159.75C355.5 153.685 350.565 148.75 344.5 148.75ZM344.5 165.25C341.461 165.25 339 162.789 339 159.75C339 156.711 341.461 154.25 344.5 154.25C347.539 154.25 350 156.711 350 159.75C350 162.789 347.539 165.25 344.5 165.25Z" fill="#6991D1"/>
<path d="M407 46C400.935 46 396 50.935 396 56.993C395.96 65.855 406.582 73.203 407 73.5C407 73.5 418.04 65.855 418 57C418 50.935 413.065 46 407 46ZM407 62.5C403.961 62.5 401.5 60.039 401.5 57C401.5 53.961 403.961 51.5 407 51.5C410.039 51.5 412.5 53.961 412.5 57C412.5 60.039 410.039 62.5 407 62.5Z" fill="#6991D1"/>
<path d="M237 86C230.935 86 226 90.935 226 96.993C225.96 105.855 236.582 113.203 237 113.5C237 113.5 248.04 105.855 248 97C248 90.935 243.065 86 237 86ZM237 102.5C233.961 102.5 231.5 100.039 231.5 97C231.5 93.961 233.961 91.5 237 91.5C240.039 91.5 242.5 93.961 242.5 97C242.5 100.039 240.039 102.5 237 102.5Z" fill="#6991D1"/>
<path d="M399 492C392.935 492 388 496.935 388 502.993C387.96 511.855 398.582 519.203 399 519.5C399 519.5 410.04 511.855 410 503C410 496.935 405.065 492 399 492ZM399 508.5C395.961 508.5 393.5 506.039 393.5 503C393.5 499.961 395.961 497.5 399 497.5C402.039 497.5 404.5 499.961 404.5 503C404.5 506.039 402.039 508.5 399 508.5Z" fill="#6991D1"/>
<path d="M410 359C403.935 359 399 363.935 399 369.993C398.96 378.855 409.582 386.203 410 386.5C410 386.5 421.04 378.855 421 370C421 363.935 416.065 359 410 359ZM410 375.5C406.961 375.5 404.5 373.039 404.5 370C404.5 366.961 406.961 364.5 410 364.5C413.039 364.5 415.5 366.961 415.5 370C415.5 373.039 413.039 375.5 410 375.5Z" fill="#6991D1"/>
</g>
<defs>
<filter id="filter0_d_161_227" x="-7" y="7.57227" width="620.557" height="604.7" filterUnits="userSpaceOnUse" color-interpolation-filters="sRGB">
<feFlood flood-opacity="0" result="BackgroundImageFix"/>
<feColorMatrix in="SourceAlpha" type="matrix" values="0 0 0 0 0 0 0 0 0 0 0 0 0 0 0 0 0 0 127 0" result="hardAlpha"/>
<feOffset dy="4"/>
<feGaussianBlur stdDeviation="3.5"/>
<feComposite in2="hardAlpha" operator="out"/>
<feColorMatrix type="matrix" values="0 0 0 0 0 0 0 0 0 0 0 0 0 0 0 0 0 0 0.25 0"/>
<feBlend mode="normal" in2="BackgroundImageFix" result="effect1_dropShadow_161_227"/>
<feBlend mode="normal" in="SourceGraphic" in2="effect1_dropShadow_161_227" result="shape"/>
</filter>
<clipPath id="clip0_161_227">
<rect width="607" height="624" fill="white"/>
</clipPath>
</defs>
</svg>
